<?xml version="1.0" encoding="UTF-8" standalone="no"?>
<!-- Created with Inkscape (http://www.inkscape.org/) -->

<svg
   xmlns:dc="http://purl.org/dc/elements/1.1/"
   xmlns:cc="http://creativecommons.org/ns#"
   xmlns:rdf="http://www.w3.org/1999/02/22-rdf-syntax-ns#"
   xmlns:svg="http://www.w3.org/2000/svg"
   xmlns="http://www.w3.org/2000/svg"
   xmlns:xlink="http://www.w3.org/1999/xlink"
   xmlns:sodipodi="http://sodipodi.sourceforge.net/DTD/sodipodi-0.dtd"
   xmlns:inkscape="http://www.inkscape.org/namespaces/inkscape"
   width="744.09448819"
   height="1052.3622047"
   id="svg2"
   version="1.1"
   inkscape:version="0.47 r22583"
   sodipodi:docname="RadioScheme.svg"
   inkscape:export-filename="/home/animant/Documents/RadioLib/Docs/RadioScheme.png"
   inkscape:export-xdpi="90"
   inkscape:export-ydpi="90">
  <defs
     id="defs4">
    <marker
       inkscape:stockid="DotM"
       orient="auto"
       refY="0.0"
       refX="0.0"
       id="DotM"
       style="overflow:visible">
      <path
         id="path5543"
         d="M -2.5,-1.0 C -2.5,1.7600000 -4.7400000,4.0 -7.5,4.0 C -10.260000,4.0 -12.5,1.7600000 -12.5,-1.0 C -12.5,-3.7600000 -10.260000,-6.0 -7.5,-6.0 C -4.7400000,-6.0 -2.5,-3.7600000 -2.5,-1.0 z "
         style="fill-rule:evenodd;stroke:#000000;stroke-width:1.0pt;marker-start:none;marker-end:none"
         transform="scale(0.4) translate(7.4, 1)" />
    </marker>
    <marker
       inkscape:stockid="DotL"
       orient="auto"
       refY="0.0"
       refX="0.0"
       id="DotL"
       style="overflow:visible">
      <path
         id="path5540"
         d="M -2.5,-1.0 C -2.5,1.7600000 -4.7400000,4.0 -7.5,4.0 C -10.260000,4.0 -12.5,1.7600000 -12.5,-1.0 C -12.5,-3.7600000 -10.260000,-6.0 -7.5,-6.0 C -4.7400000,-6.0 -2.5,-3.7600000 -2.5,-1.0 z "
         style="fill-rule:evenodd;stroke:#000000;stroke-width:1.0pt;marker-start:none;marker-end:none"
         transform="scale(0.8) translate(7.4, 1)" />
    </marker>
    <marker
       inkscape:stockid="Arrow1Mend"
       orient="auto"
       refY="0.0"
       refX="0.0"
       id="Arrow1Mend"
       style="overflow:visible;">
      <path
         id="path5487"
         d="M 0.0,0.0 L 5.0,-5.0 L -12.5,0.0 L 5.0,5.0 L 0.0,0.0 z "
         style="fill-rule:evenodd;stroke:#000000;stroke-width:1.0pt;marker-start:none;"
         transform="scale(0.4) rotate(180) translate(10,0)" />
    </marker>
    <marker
       inkscape:stockid="Arrow1Mstart"
       orient="auto"
       refY="0.0"
       refX="0.0"
       id="Arrow1Mstart"
       style="overflow:visible">
      <path
         id="path5484"
         d="M 0.0,0.0 L 5.0,-5.0 L -12.5,0.0 L 5.0,5.0 L 0.0,0.0 z "
         style="fill-rule:evenodd;stroke:#000000;stroke-width:1.0pt;marker-start:none"
         transform="scale(0.4) translate(10,0)" />
    </marker>
    <marker
       inkscape:stockid="Arrow2Mend"
       orient="auto"
       refY="0.0"
       refX="0.0"
       id="Arrow2Mend"
       style="overflow:visible;">
      <path
         id="path5505"
         style="font-size:12.0;fill-rule:evenodd;stroke-width:0.62500000;stroke-linejoin:round;"
         d="M 8.7185878,4.0337352 L -2.2072895,0.016013256 L 8.7185884,-4.0017078 C 6.9730900,-1.6296469 6.9831476,1.6157441 8.7185878,4.0337352 z "
         transform="scale(0.6) rotate(180) translate(0,0)" />
    </marker>
    <marker
       inkscape:stockid="Arrow1Sstart"
       orient="auto"
       refY="0.0"
       refX="0.0"
       id="Arrow1Sstart"
       style="overflow:visible">
      <path
         id="path5490"
         d="M 0.0,0.0 L 5.0,-5.0 L -12.5,0.0 L 5.0,5.0 L 0.0,0.0 z "
         style="fill-rule:evenodd;stroke:#000000;stroke-width:1.0pt;marker-start:none"
         transform="scale(0.2) translate(6,0)" />
    </marker>
    <marker
       inkscape:stockid="Arrow1Lend"
       orient="auto"
       refY="0.0"
       refX="0.0"
       id="Arrow1Lend"
       style="overflow:visible;">
      <path
         id="path5481"
         d="M 0.0,0.0 L 5.0,-5.0 L -12.5,0.0 L 5.0,5.0 L 0.0,0.0 z "
         style="fill-rule:evenodd;stroke:#000000;stroke-width:1.0pt;marker-start:none;"
         transform="scale(0.8) rotate(180) translate(12.5,0)" />
    </marker>
    <linearGradient
       inkscape:collect="always"
       id="linearGradient6472">
      <stop
         style="stop-color:#ffd42a;stop-opacity:1;"
         offset="0"
         id="stop6474" />
      <stop
         style="stop-color:#ffd42a;stop-opacity:0;"
         offset="1"
         id="stop6476" />
    </linearGradient>
    <linearGradient
       inkscape:collect="always"
       id="linearGradient6464">
      <stop
         style="stop-color:#ffd42a;stop-opacity:1;"
         offset="0"
         id="stop6466" />
      <stop
         style="stop-color:#ffd42a;stop-opacity:0;"
         offset="1"
         id="stop6468" />
    </linearGradient>
    <linearGradient
       inkscape:collect="always"
       id="linearGradient6456">
      <stop
         style="stop-color:#ffd42a;stop-opacity:1;"
         offset="0"
         id="stop6458" />
      <stop
         style="stop-color:#ffd42a;stop-opacity:0;"
         offset="1"
         id="stop6460" />
    </linearGradient>
    <linearGradient
       inkscape:collect="always"
       id="linearGradient6448">
      <stop
         style="stop-color:#000000;stop-opacity:1;"
         offset="0"
         id="stop6450" />
      <stop
         style="stop-color:#000000;stop-opacity:0;"
         offset="1"
         id="stop6452" />
    </linearGradient>
    <linearGradient
       inkscape:collect="always"
       id="linearGradient6436">
      <stop
         style="stop-color:#ffd42a;stop-opacity:1;"
         offset="0"
         id="stop6438" />
      <stop
         style="stop-color:#ffd42a;stop-opacity:0;"
         offset="1"
         id="stop6440" />
    </linearGradient>
    <linearGradient
       inkscape:collect="always"
       id="linearGradient6428">
      <stop
         style="stop-color:#ff5555;stop-opacity:1;"
         offset="0"
         id="stop6430" />
      <stop
         style="stop-color:#ff5555;stop-opacity:0;"
         offset="1"
         id="stop6432" />
    </linearGradient>
    <linearGradient
       inkscape:collect="always"
       id="linearGradient6420">
      <stop
         style="stop-color:#ff5555;stop-opacity:1;"
         offset="0"
         id="stop6422" />
      <stop
         style="stop-color:#ff5555;stop-opacity:0;"
         offset="1"
         id="stop6424" />
    </linearGradient>
    <linearGradient
       inkscape:collect="always"
       id="linearGradient6410">
      <stop
         style="stop-color:#000000;stop-opacity:1;"
         offset="0"
         id="stop6412" />
      <stop
         style="stop-color:#000000;stop-opacity:0;"
         offset="1"
         id="stop6414" />
    </linearGradient>
    <linearGradient
       id="linearGradient6402">
      <stop
         id="stop6404"
         offset="0"
         style="stop-color:#00f600;stop-opacity:1;" />
      <stop
         id="stop6406"
         offset="1"
         style="stop-color:#ee0000;stop-opacity:0;" />
    </linearGradient>
    <linearGradient
       id="linearGradient6384">
      <stop
         style="stop-color:#000000;stop-opacity:1;"
         offset="0"
         id="stop6386" />
      <stop
         style="stop-color:#000000;stop-opacity:0;"
         offset="1"
         id="stop6388" />
    </linearGradient>
    <marker
       inkscape:stockid="Arrow1Lstart"
       orient="auto"
       refY="0.0"
       refX="0.0"
       id="Arrow1Lstart"
       style="overflow:visible">
      <path
         id="path5478"
         d="M 0.0,0.0 L 5.0,-5.0 L -12.5,0.0 L 5.0,5.0 L 0.0,0.0 z "
         style="fill-rule:evenodd;stroke:#000000;stroke-width:1.0pt;marker-start:none"
         transform="scale(0.8) translate(12.5,0)" />
    </marker>
    <inkscape:perspective
       sodipodi:type="inkscape:persp3d"
       inkscape:vp_x="-338.08451 : 287.88229 : 1"
       inkscape:vp_y="0 : 435.89654 : 0"
       inkscape:vp_z="676.85643 : 287.88229 : 1"
       inkscape:persp3d-origin="169.38595 : 211.42878 : 1"
       id="perspective10" />
    <inkscape:perspective
       id="perspective2860"
       inkscape:persp3d-origin="0.5 : 0.33333333 : 1"
       inkscape:vp_z="1 : 0.5 : 1"
       inkscape:vp_y="0 : 1000 : 0"
       inkscape:vp_x="0 : 0.5 : 1"
       sodipodi:type="inkscape:persp3d" />
    <inkscape:perspective
       id="perspective2900"
       inkscape:persp3d-origin="0.5 : 0.33333333 : 1"
       inkscape:vp_z="1 : 0.5 : 1"
       inkscape:vp_y="0 : 1000 : 0"
       inkscape:vp_x="0 : 0.5 : 1"
       sodipodi:type="inkscape:persp3d" />
    <inkscape:perspective
       id="perspective2946"
       inkscape:persp3d-origin="0.5 : 0.33333333 : 1"
       inkscape:vp_z="1 : 0.5 : 1"
       inkscape:vp_y="0 : 1000 : 0"
       inkscape:vp_x="0 : 0.5 : 1"
       sodipodi:type="inkscape:persp3d" />
    <inkscape:perspective
       id="perspective3040"
       inkscape:persp3d-origin="0.5 : 0.33333333 : 1"
       inkscape:vp_z="1 : 0.5 : 1"
       inkscape:vp_y="0 : 1000 : 0"
       inkscape:vp_x="0 : 0.5 : 1"
       sodipodi:type="inkscape:persp3d" />
    <inkscape:perspective
       id="perspective3084"
       inkscape:persp3d-origin="0.5 : 0.33333333 : 1"
       inkscape:vp_z="1 : 0.5 : 1"
       inkscape:vp_y="0 : 1000 : 0"
       inkscape:vp_x="0 : 0.5 : 1"
       sodipodi:type="inkscape:persp3d" />
    <inkscape:perspective
       id="perspective3112"
       inkscape:persp3d-origin="0.5 : 0.33333333 : 1"
       inkscape:vp_z="1 : 0.5 : 1"
       inkscape:vp_y="0 : 1000 : 0"
       inkscape:vp_x="0 : 0.5 : 1"
       sodipodi:type="inkscape:persp3d" />
    <inkscape:perspective
       id="perspective3140"
       inkscape:persp3d-origin="0.5 : 0.33333333 : 1"
       inkscape:vp_z="1 : 0.5 : 1"
       inkscape:vp_y="0 : 1000 : 0"
       inkscape:vp_x="0 : 0.5 : 1"
       sodipodi:type="inkscape:persp3d" />
    <inkscape:perspective
       id="perspective3140-8"
       inkscape:persp3d-origin="0.5 : 0.33333333 : 1"
       inkscape:vp_z="1 : 0.5 : 1"
       inkscape:vp_y="0 : 1000 : 0"
       inkscape:vp_x="0 : 0.5 : 1"
       sodipodi:type="inkscape:persp3d" />
    <inkscape:perspective
       id="perspective3214"
       inkscape:persp3d-origin="0.5 : 0.33333333 : 1"
       inkscape:vp_z="1 : 0.5 : 1"
       inkscape:vp_y="0 : 1000 : 0"
       inkscape:vp_x="0 : 0.5 : 1"
       sodipodi:type="inkscape:persp3d" />
    <inkscape:perspective
       id="perspective6137"
       inkscape:persp3d-origin="0.5 : 0.33333333 : 1"
       inkscape:vp_z="1 : 0.5 : 1"
       inkscape:vp_y="0 : 1000 : 0"
       inkscape:vp_x="0 : 0.5 : 1"
       sodipodi:type="inkscape:persp3d" />
    <inkscape:perspective
       id="perspective6231"
       inkscape:persp3d-origin="0.5 : 0.33333333 : 1"
       inkscape:vp_z="1 : 0.5 : 1"
       inkscape:vp_y="0 : 1000 : 0"
       inkscape:vp_x="0 : 0.5 : 1"
       sodipodi:type="inkscape:persp3d" />
    <inkscape:perspective
       id="perspective6261"
       inkscape:persp3d-origin="0.5 : 0.33333333 : 1"
       inkscape:vp_z="1 : 0.5 : 1"
       inkscape:vp_y="0 : 1000 : 0"
       inkscape:vp_x="0 : 0.5 : 1"
       sodipodi:type="inkscape:persp3d" />
    <inkscape:perspective
       id="perspective6291"
       inkscape:persp3d-origin="0.5 : 0.33333333 : 1"
       inkscape:vp_z="1 : 0.5 : 1"
       inkscape:vp_y="0 : 1000 : 0"
       inkscape:vp_x="0 : 0.5 : 1"
       sodipodi:type="inkscape:persp3d" />
    <inkscape:perspective
       id="perspective6346"
       inkscape:persp3d-origin="0.5 : 0.33333333 : 1"
       inkscape:vp_z="1 : 0.5 : 1"
       inkscape:vp_y="0 : 1000 : 0"
       inkscape:vp_x="0 : 0.5 : 1"
       sodipodi:type="inkscape:persp3d" />
    <radialGradient
       inkscape:collect="always"
       xlink:href="#linearGradient6410"
       id="radialGradient6418"
       cx="-477.80219"
       cy="-81.028969"
       fx="-477.80219"
       fy="-81.028969"
       r="209.60158"
       gradientTransform="matrix(1,0,0,0.33010427,0,-54.28096)"
       gradientUnits="userSpaceOnUse" />
    <linearGradient
       inkscape:collect="always"
       xlink:href="#linearGradient6420"
       id="linearGradient6426"
       x1="-686.90375"
       y1="-81.028969"
       x2="-268.70059"
       y2="-81.028969"
       gradientUnits="userSpaceOnUse"
       spreadMethod="repeat" />
    <linearGradient
       inkscape:collect="always"
       xlink:href="#linearGradient6428"
       id="linearGradient6434"
       x1="-182.73608"
       y1="-81.110191"
       x2="235.46707"
       y2="-81.110191"
       gradientUnits="userSpaceOnUse" />
    <linearGradient
       inkscape:collect="always"
       xlink:href="#linearGradient6436"
       id="linearGradient6446"
       x1="-658.55853"
       y1="90.940628"
       x2="-268.63965"
       y2="90.940628"
       gradientUnits="userSpaceOnUse" />
    <linearGradient
       inkscape:collect="always"
       xlink:href="#linearGradient6448"
       id="linearGradient6454"
       x1="-153.73105"
       y1="63.163979"
       x2="236.18784"
       y2="63.163979"
       gradientUnits="userSpaceOnUse" />
    <linearGradient
       inkscape:collect="always"
       xlink:href="#linearGradient6456"
       id="linearGradient6462"
       x1="-146.38802"
       y1="352.36217"
       x2="243.53087"
       y2="352.36217"
       gradientUnits="userSpaceOnUse" />
    <linearGradient
       inkscape:collect="always"
       xlink:href="#linearGradient6464"
       id="linearGradient6470"
       x1="-154.23105"
       y1="63.163979"
       x2="236.68784"
       y2="63.163979"
       gradientUnits="userSpaceOnUse" />
    <linearGradient
       inkscape:collect="always"
       xlink:href="#linearGradient6472"
       id="linearGradient6478"
       x1="866.45178"
       y1="323.18571"
       x2="1256.3707"
       y2="323.18571"
       gradientUnits="userSpaceOnUse" />
    <inkscape:perspective
       id="perspective10976"
       inkscape:persp3d-origin="0.5 : 0.33333333 : 1"
       inkscape:vp_z="1 : 0.5 : 1"
       inkscape:vp_y="0 : 1000 : 0"
       inkscape:vp_x="0 : 0.5 : 1"
       sodipodi:type="inkscape:persp3d" />
    <marker
       inkscape:stockid="DotM"
       orient="auto"
       refY="0"
       refX="0"
       id="DotM-9"
       style="overflow:visible">
      <path
         id="path5543-9"
         d="m -2.5,-1 c 0,2.76 -2.24,5 -5,5 -2.76,0 -5,-2.24 -5,-5 0,-2.76 2.24,-5 5,-5 2.76,0 5,2.24 5,5 z"
         style="fill-rule:evenodd;stroke:#000000;stroke-width:1pt;marker-start:none;marker-end:none"
         transform="matrix(0.4,0,0,0.4,2.96,0.4)" />
    </marker>
    <marker
       inkscape:stockid="Arrow1Lend"
       orient="auto"
       refY="0"
       refX="0"
       id="Arrow1Lend-1"
       style="overflow:visible">
      <path
         id="path5481-6"
         d="M 0,0 5,-5 -12.5,0 5,5 0,0 z"
         style="fill-rule:evenodd;stroke:#000000;stroke-width:1pt;marker-start:none"
         transform="matrix(-0.8,0,0,-0.8,-10,0)" />
    </marker>
    <inkscape:perspective
       id="perspective11010"
       inkscape:persp3d-origin="0.5 : 0.33333333 : 1"
       inkscape:vp_z="1 : 0.5 : 1"
       inkscape:vp_y="0 : 1000 : 0"
       inkscape:vp_x="0 : 0.5 : 1"
       sodipodi:type="inkscape:persp3d" />
    <marker
       inkscape:stockid="DotM"
       orient="auto"
       refY="0"
       refX="0"
       id="DotM-1"
       style="overflow:visible">
      <path
         id="path5543-0"
         d="m -2.5,-1 c 0,2.76 -2.24,5 -5,5 -2.76,0 -5,-2.24 -5,-5 0,-2.76 2.24,-5 5,-5 2.76,0 5,2.24 5,5 z"
         style="fill-rule:evenodd;stroke:#000000;stroke-width:1pt;marker-start:none;marker-end:none"
         transform="matrix(0.4,0,0,0.4,2.96,0.4)" />
    </marker>
    <marker
       inkscape:stockid="Arrow1Lend"
       orient="auto"
       refY="0"
       refX="0"
       id="Arrow1Lend-5"
       style="overflow:visible">
      <path
         id="path5481-3"
         d="M 0,0 5,-5 -12.5,0 5,5 0,0 z"
         style="fill-rule:evenodd;stroke:#000000;stroke-width:1pt;marker-start:none"
         transform="matrix(-0.8,0,0,-0.8,-10,0)" />
    </marker>
    <inkscape:perspective
       id="perspective11044"
       inkscape:persp3d-origin="0.5 : 0.33333333 : 1"
       inkscape:vp_z="1 : 0.5 : 1"
       inkscape:vp_y="0 : 1000 : 0"
       inkscape:vp_x="0 : 0.5 : 1"
       sodipodi:type="inkscape:persp3d" />
    <marker
       inkscape:stockid="DotM"
       orient="auto"
       refY="0"
       refX="0"
       id="DotM-19"
       style="overflow:visible">
      <path
         id="path5543-7"
         d="m -2.5,-1 c 0,2.76 -2.24,5 -5,5 -2.76,0 -5,-2.24 -5,-5 0,-2.76 2.24,-5 5,-5 2.76,0 5,2.24 5,5 z"
         style="fill-rule:evenodd;stroke:#000000;stroke-width:1pt;marker-start:none;marker-end:none"
         transform="matrix(0.4,0,0,0.4,2.96,0.4)" />
    </marker>
    <marker
       inkscape:stockid="Arrow1Lend"
       orient="auto"
       refY="0"
       refX="0"
       id="Arrow1Lend-6"
       style="overflow:visible">
      <path
         id="path5481-8"
         d="M 0,0 5,-5 -12.5,0 5,5 0,0 z"
         style="fill-rule:evenodd;stroke:#000000;stroke-width:1pt;marker-start:none"
         transform="matrix(-0.8,0,0,-0.8,-10,0)" />
    </marker>
  </defs>
  <sodipodi:namedview
     id="base"
     pagecolor="#ffffff"
     bordercolor="#666666"
     borderopacity="1.0"
     inkscape:pageopacity="0.0"
     inkscape:pageshadow="2"
     inkscape:zoom="0.35"
     inkscape:cx="-258.53086"
     inkscape:cy="420.31927"
     inkscape:document-units="px"
     inkscape:current-layer="layer1"
     showgrid="false"
     inkscape:window-width="1600"
     inkscape:window-height="824"
     inkscape:window-x="0"
     inkscape:window-y="25"
     inkscape:window-maximized="1" />
  <metadata
     id="metadata7">
    <rdf:RDF>
      <cc:Work
         rdf:about="">
        <dc:format>image/svg+xml</dc:format>
        <dc:type
           rdf:resource="http://purl.org/dc/dcmitype/StillImage" />
        <dc:title></dc:title>
      </cc:Work>
    </rdf:RDF>
  </metadata>
  <g
     inkscape:label="Layer 1"
     inkscape:groupmode="layer"
     id="layer1">
    <rect
       id="rect2816"
       width="381.83768"
       height="236.37569"
       x="-76.880325"
       y="585.50348"
       style="fill-opacity:1;fill:#0000d1" />
    <text
       xml:space="preserve"
       style="font-size:40px;font-style:normal;font-weight:normal;text-align:center;text-anchor:middle;fill:#000000;fill-opacity:1;stroke:none;font-family:Bitstream Vera Sans"
       x="100.64401"
       y="722.88422"
       id="text2818"><tspan
         sodipodi:role="line"
         id="tspan2820"
         x="100.64401"
         y="722.88422"
         style="font-size:56px;text-align:center;text-anchor:middle">Kernel</tspan></text>
    <rect
       style="fill:#ff2a2a;stroke:none;fill-opacity:1"
       id="rect2822"
       width="418.20316"
       height="137.38075"
       x="-686.90375"
       y="-149.71935">
      <desc
         id="desc2826"
         style="stroke:url(#radialGradient6418);fill-opacity:1.0;fill:url(#linearGradient6426)">dfvdfv</desc>
      <title
         id="title2824"
         style="stroke:url(#radialGradient6418);fill-opacity:1.0;fill:url(#linearGradient6426)">fdfv</title>
    </rect>
    <flowRoot
       xml:space="preserve"
       id="flowRoot2836"
       style="fill:black;stroke:none;stroke-opacity:1;stroke-width:1px;stroke-linejoin:miter;stroke-linecap:butt;fill-opacity:1;font-family:Bitstream Vera Sans;font-style:normal;font-weight:normal;font-size:40px"><flowRegion
         id="flowRegion2838"><rect
           id="rect2840"
           width="551.54327"
           height="204.05081"
           x="537.40118"
           y="68.473602" /></flowRegion><flowPara
         id="flowPara2842"></flowPara></flowRoot>    <flowRoot
       xml:space="preserve"
       id="flowRoot2844"
       style="font-size:40px;font-style:normal;font-weight:normal;fill:#000000;fill-opacity:1;stroke:none;font-family:Bitstream Vera Sans"
       transform="translate(-1335.3405,-238.35539)"><flowRegion
         id="flowRegion2846"><rect
           id="rect2848"
           width="359.61432"
           height="86.873123"
           x="694.98492"
           y="127.06245" /></flowRegion><flowPara
         id="flowPara2850">[HW] CryptoCore</flowPara></flowRoot>    <rect
       style="fill:#ff2a2a;fill-opacity:1"
       id="rect2822-5"
       width="418.20316"
       height="137.38075"
       x="-182.73608"
       y="-149.80057">
      <desc
         id="desc2826-0"
         style="fill-opacity:1;fill:url(#linearGradient6434)">dfvdfv</desc>
      <title
         id="title2824-9"
         style="fill-opacity:1;fill:url(#linearGradient6434)">fdfv</title>
    </rect>
    <flowRoot
       xml:space="preserve"
       id="flowRoot2844-6"
       style="font-size:40px;font-style:normal;font-weight:normal;fill:#000000;fill-opacity:1;stroke:none;font-family:Bitstream Vera Sans"
       transform="translate(-750.44186,-232.41631)"><flowRegion
         id="flowRegion2846-3"><rect
           id="rect2848-8"
           width="321.22852"
           height="88.893425"
           x="694.98492"
           y="127.06245" /></flowRegion><flowPara
         id="flowPara2850-5">Codecs</flowPara></flowRoot>    <flowRoot
       xml:space="preserve"
       id="flowRoot2844-6-5"
       style="font-size:40px;font-style:normal;font-weight:normal;fill:#000000;fill-opacity:1;stroke:none;font-family:Bitstream Vera Sans"
       transform="translate(-102.28809,323.70119)"><flowRegion
         id="flowRegion2846-3-9"><rect
           id="rect2848-8-8"
           width="321.22852"
           height="88.893425"
           x="694.98492"
           y="127.06245" /></flowRegion><flowPara
         id="flowPara2850-5-4">USB monitor</flowPara></flowRoot>    <path
       style="fill:none;stroke:#000000;stroke-width:1px;stroke-linecap:butt;stroke-linejoin:miter;stroke-opacity:1"
       d="m -1416.1689,552.46072 c -12.7952,0 -25.5905,0 -38.3857,0 -6.061,0 -12.1219,0 -18.1828,0 -1.3469,0 -2.6937,0 -4.0406,0 -0.6734,0 -1.3814,-0.21296 -2.0203,0 -1.4286,0.47619 -2.612,1.54411 -4.0406,2.0203 -1.2716,0.42386 -8.2805,0 -10.1015,0 -6.7344,0 -13.4687,0 -20.2031,0 -0.1014,0 -4.9997,0 -6.0609,0 -0.6734,0 -1.5441,0.47619 -2.0203,0 -0.4762,-0.47619 0.4762,-1.54411 0,-2.0203 -0.4762,-0.47619 -1.5441,0.47619 -2.0203,0 -0.4762,-0.47619 0.4762,-1.54412 0,-2.02031 -0.4762,-0.47619 -1.3469,0 -2.0203,0 0,-0.67343 0.3011,-1.41796 0,-2.0203 -0.4259,-0.85184 -1.1685,-1.59439 -2.0203,-2.02031 -0.6024,-0.30117 -1.7192,0.60234 -2.0203,0 -0.6024,-1.20467 0.6023,-2.83593 0,-4.04061 -0.3012,-0.60234 -1.418,0.30117 -2.0203,0 -0.8519,-0.42592 -1.3469,-1.34687 -2.0203,-2.0203 -0.6735,-0.67344 -1.5944,-1.16847 -2.0204,-2.02031 -0.3011,-0.60234 0.4762,-1.54411 0,-2.0203 -4.18,-4.18009 0.1635,6.38772 -4.0406,-2.02031 -0.3011,-0.60234 0.4762,-1.54411 0,-2.0203 -0.4762,-0.47619 -1.4179,0.30117 -2.0203,0 -0.8518,-0.42592 -1.1684,-1.59439 -2.0203,-2.02031 -0.6023,-0.30117 -1.5441,0.47619 -2.0203,0 -0.4762,-0.47619 0.4762,-1.54411 0,-2.0203 -0.4762,-0.47619 -1.4179,0.30117 -2.0203,0 -0.8518,-0.42592 -1.3469,-1.34687 -2.0203,-2.02031 -1.3469,0 -2.7628,0.42592 -4.0406,0 -0.9035,-0.30117 -1.1685,-1.59439 -2.0203,-2.0203 -0.6023,-0.30117 -1.418,0.30117 -2.0203,0 -0.8518,-0.42592 -1.1168,-1.71914 -2.0203,-2.02031 -2.5555,-0.85183 -5.4679,0.65333 -8.0812,0 -1.4609,-0.36522 -2.6121,-1.54411 -4.0406,-2.0203 -1.309,-0.43633 -8.4475,0 -10.1016,0 -1.654,0 -8.7925,-0.43633 -10.1015,0 -1.4286,0.47619 -2.612,1.54411 -4.0406,2.0203 -0.6389,0.21296 -1.418,-0.30117 -2.0203,0 -0.8518,0.42592 -1.1168,1.71914 -2.0203,2.02031 -1.2778,0.42591 -2.7629,-0.42592 -4.0406,0 -0.9035,0.30117 -1.1685,1.59438 -2.0203,2.0203 -0.6024,0.30117 -1.418,-0.30117 -2.0203,0 -1.7907,0.89534 -4.2218,4.83484 -6.061,6.06092 -1.2529,0.83529 -2.7876,1.18501 -4.0406,2.0203 -1.5848,1.05657 -2.3369,3.18878 -4.0406,4.04061 -0.6023,0.30117 -1.5441,-0.47619 -2.0203,0 0,5.38748 0.6735,-0.67343 -2.0203,2.02031 -0.9524,0.95238 0.9524,3.08823 0,4.04061 -0.4762,0.47619 -1.5441,-0.47619 -2.0203,0 -0.4762,0.47619 0,1.34687 0,2.0203 0,0.48998 -0.065,5.99595 0,6.06092 0.4762,0.47619 1.5441,-0.47619 2.0203,0 0.9524,0.95238 -0.9524,3.08823 0,4.04061 0.4762,0.47619 1.5441,-0.47619 2.0203,0 0.4762,0.47619 -0.4762,1.54411 0,2.0203 0.4762,0.47619 1.5441,0.47619 2.0203,0 0.4762,-0.47619 -0.4762,-1.54411 0,-2.0203 0.4762,-0.47619 1.5441,0.47619 2.0203,0 0.4762,-0.47619 0,-1.34687 0,-2.02031 0,-1.4052 0.3653,-9.37091 0,-10.10152 -6.7005,-6.70051 0.9524,1.90476 -2.0203,-4.04061 -1.3431,-2.68632 -2.6974,-1.3543 -4.0406,-4.04061 -0.3012,-0.60234 0.3012,-1.41797 0,-2.02031 -0.4259,-0.85183 -1.3469,-1.34687 -2.0203,-2.0203 -0.6734,-0.67344 -1.2279,-1.49202 -2.0203,-2.02031 -1.2529,-0.83529 -2.7877,-1.18501 -4.0406,-2.0203 -3.6966,-2.46442 -0.2016,-2.57577 -6.0609,-4.04061 -1.3067,-0.32667 -2.734,0.32666 -4.0406,0 -2.9218,-0.73045 -5.2241,-3.08823 -8.0812,-4.04061 -0.6389,-0.21296 -1.3815,0.21296 -2.0204,0 -1.4285,-0.47619 -2.5797,-1.65509 -4.0406,-2.02031 -1.6429,-0.41073 -10.0069,0 -12.1218,0 -2.0203,0 -4.1443,-0.63888 -6.0609,0 -0.9035,0.30117 -1.1685,1.59439 -2.0203,2.02031 -0.6024,0.30117 -1.5441,-0.47619 -2.0203,0 -0.4762,0.47619 0.4762,1.54411 0,2.0203 -0.4762,0.47619 -1.418,-0.30117 -2.0203,0 -2.4244,1.21218 -3.6366,4.84873 -6.0609,6.06092 -0.6024,0.30117 -1.5442,-0.47619 -2.0203,0 -0.4762,0.47619 0.3011,1.41796 0,2.0203 -6.7006,6.70051 0.9523,-1.90476 -2.0203,4.04061 -4.6231,9.24615 0.8373,-8.57299 -4.0407,6.06092 -0.2129,0.63887 0.3012,1.41796 0,2.0203 -2.4965,4.99299 -2.0203,-0.69736 -2.0203,4.04061 0,0.74193 -0.081,7.99992 0,8.08122 0.4762,0.47619 1.5441,-0.47619 2.0203,0 0.4762,0.47619 -0.4762,1.54412 0,2.02031 0.4762,0.47619 1.3469,0 2.0203,0 0.6735,0 1.418,0.30117 2.0204,0 0.8518,-0.42592 1.5943,-1.16847 2.0203,-2.02031 0.3011,-0.60234 0,-1.34687 0,-2.0203 0,-0.67344 0,-1.34687 0,-2.02031 0,-3.36717 0,-6.73435 0,-10.10152 0,-1.34687 0.3266,-2.73396 0,-4.04061 -0.3277,-1.31046 -5.2026,-10.83435 -6.061,-12.12183 -0.5282,-0.79243 -1.492,-1.22788 -2.0203,-2.02031 -0.8353,-1.25294 -0.9555,-2.97581 -2.0203,-4.04061 -1.0648,-1.06479 -2.7875,-1.18501 -4.0405,-2.0203 -2.3311,-1.55408 -3.7298,-4.50684 -6.0609,-6.06092 -1.0174,-4.45106 -4.1561,-1.06792 -6.0609,-2.0203 -0.8518,-0.42592 -1.1168,-1.71914 -2.0203,-2.02031 -1.1576,-0.38587 -8.2048,0 -10.1015,0 -1.3469,0 -2.6938,0 -4.0407,0 -1.3468,0 -2.7628,-0.42592 -4.0406,0 -0.9035,0.30117 -1.2278,1.49202 -2.0203,2.02031 -1.0174,4.45106 -4.1561,1.06792 -6.0609,2.0203 -0.5364,0.26821 -5.7927,5.5245 -6.0609,6.06092 -0.3012,0.60233 0.4762,1.54411 0,2.0203 -0.4762,0.47619 -1.5441,-0.47619 -2.0203,0 -0.4762,0.47619 0.3012,1.41797 0,2.02031 -0.4259,0.85183 -1.5944,1.16847 -2.0203,2.0203 -0.6023,1.20468 0.4259,2.76286 0,4.04061 -0.4762,1.42857 -1.5441,2.61204 -2.0203,4.04061 -0.404,1.21207 0,8.48941 0,10.10153 0,1.71452 -0.3713,11.00808 0,12.12183 0.3012,0.90351 1.492,1.22787 2.0203,2.0203 0.6734,1.34687 1.3469,2.69374 2.0203,4.04061 0,0.67344 -0.3012,1.41797 0,2.02031 0.4259,0.85183 1.492,1.22787 2.0203,2.0203 0.8353,1.25294 0.9555,2.97582 2.0203,4.04061 1.0102,1.01016 5.0508,-1.01015 6.0609,0 0.4762,0.47619 -0.4762,1.54412 0,2.02031 0.4762,0.47619 1.3469,0 2.0203,0 0.49,0 5.996,0.065 6.0609,0 0.4762,-0.47619 -0.4761,-1.54412 0,-2.02031 0.4762,-0.47619 1.5442,0.47619 2.0203,0 0.9524,-0.95238 -0.9523,-3.08823 0,-4.04061 0.4762,-0.47619 1.5442,0.47619 2.0204,0 0.9523,-0.95238 -0.426,-2.76285 0,-4.04061 0.4761,-1.42857 1.655,-2.57972 2.0203,-4.04061 0.3266,-1.30665 0,-2.69374 0,-4.04061 0,-1.34687 0,-2.69374 0,-4.04061 0,-3.36717 0.6603,-6.79974 0,-10.10152 -0.504,-2.51993 -5.381,-8.74157 -6.061,-10.10153 -0.9523,-1.90476 -0.9246,-4.23481 -2.0203,-6.06091 -0.98,-1.63332 -2.8507,-2.55324 -4.0406,-4.04061 -5.3875,-6.73435 -2.0203,-6.06092 -10.1015,-10.10153 -1.9048,-0.95238 -4.1562,-1.06792 -6.0609,-2.0203 -2.1718,-1.08589 -3.8892,-2.95473 -6.0609,-4.04061 -1.9048,-0.95239 -4.0406,-1.34687 -6.0609,-2.02031 -2.0203,-0.67343 -4.0407,-1.34687 -6.061,-2.0203 -4.3173,-1.43913 -9.7027,-3.40641 -14.1421,-4.04061 -2,-0.28572 -4.0406,0 -6.0609,0 -4.0461,0 -8.0758,0 -12.1218,0 -2.6938,0 -5.3875,0 -8.0813,0 -2.0203,0 -4.0681,-0.33214 -6.0609,0 -1.7462,0.29103 -8.2173,2.62742 -10.1015,4.04061 -1.5238,1.14285 -2.4073,3.06061 -4.0406,4.04061 -13.1132,7.86793 0.1364,-4.17707 -10.1015,6.06091 -2.6938,2.69374 -5.3875,5.38748 -8.0813,8.08122 -1.3468,1.34687 -2.8977,2.5168 -4.0406,4.04061 -0.6734,1.34687 -1.3468,2.69374 -2.0203,4.04061 0,0.67344 0.3012,1.41797 0,2.02031 -0.4259,0.85183 -1.5944,1.16847 -2.0203,2.0203 -0.3011,0.60234 0,1.34687 0,2.02031 0,0.67343 0,1.34687 0,2.0203 0,0.48009 -0.2264,7.62841 0,8.08122 0.4259,0.85184 1.7192,1.1168 2.0203,2.02031 0.4259,1.27775 -0.4259,2.76285 0,4.04061 0.3012,0.90351 1.492,1.22787 2.0203,2.0203 0.8353,1.25294 1.185,2.78767 2.0203,4.04061 0.5283,0.79243 1.4921,1.22788 2.0203,2.02031 0.8353,1.25294 1.1168,2.83593 2.0203,4.04061 1.7143,2.28571 4.0407,4.04061 6.061,6.06091 0.6734,0.67344 1.3468,1.34687 2.0203,2.02031 0.6734,0.67343 1.1684,1.59439 2.0203,2.0203 0.6023,0.30117 1.4179,-0.30117 2.0203,0 4.993,2.4965 -0.6974,2.02031 4.0406,2.02031 0.6734,0 1.3469,0 2.0203,0 0.6734,0 1.8073,0.63888 2.0203,0 0.6389,-1.91663 -0.3962,-4.07984 0,-6.06092 0.5906,-2.9532 3.3102,-5.15945 4.0406,-8.08122 0.3973,-1.5892 0,-10.02086 0,-12.12183 0,-2.0203 0,-4.04061 0,-6.06091 0,-1.34687 0.4259,-2.76286 0,-4.04061 -0.3012,-0.90351 -1.492,-1.22788 -2.0203,-2.02031 -5.7443,-8.61642 2.6775,0.65719 -6.0609,-8.08122 -2.0203,-2.0203 -3.6109,-4.59093 -6.0609,-6.06091 -1.8261,-1.09567 -4.0837,-1.2294 -6.0609,-2.02031 -1.3982,-0.55926 -2.564,-1.72498 -4.0407,-2.0203 -1.981,-0.39622 -4.0798,0.39621 -6.0609,0 -1.4766,-0.29532 -2.564,-1.72499 -4.0406,-2.02031 -1.9607,-0.39215 -13.7651,0 -16.1624,0 -4.7141,0 -9.4281,0 -14.1422,0 -1.3468,0 -2.7339,-0.32666 -4.0406,0 -1.3104,0.32761 -10.8343,5.2026 -12.1218,6.06092 -0.7924,0.52828 -1.3469,1.34687 -2.0203,2.0203 -3.7039,3.70392 -10.442,9.10259 -12.1218,14.14214 -0.4227,1.26805 0,6.4548 0,8.08122 0,0.48998 -0.065,5.99594 0,6.06091 0.4762,0.47619 1.5441,-0.47619 2.0203,0 4.1801,4.18009 -6.3877,-0.1634 2.0203,4.04061 0.6023,0.30117 1.4179,-0.30117 2.0203,0 0.8518,0.42592 1.1685,1.59439 2.0203,2.02031 1.2047,0.60234 3.0882,-0.95238 4.0406,0 0.4762,0.47619 -0.4762,1.54411 0,2.0203 0.4762,0.47619 1.5441,0.47619 2.0203,0 0.4762,-0.47619 0,-1.34687 0,-2.0203 0,-2.69374 0,-5.38748 0,-8.08122 0,-2.10097 0.3973,-10.53263 0,-12.12183 -0.3276,-1.31046 -5.2026,-10.83435 -6.0609,-12.12183 -0.5283,-0.79243 -1.492,-1.22788 -2.0203,-2.02031 -0.8353,-1.25294 -1.185,-2.78767 -2.0203,-4.04061 -1.1622,-1.74332 -4.4829,-4.48288 -6.0609,-6.06091 -4.738,-4.73798 1.4285,0.47619 -6.061,-2.02031 -0.9035,-0.30117 -1.1684,-1.59439 -2.0203,-2.0203 -0.6023,-0.30117 -1.4179,0.30117 -2.0203,0 -0.8518,-0.42592 -1.1684,-1.59439 -2.0203,-2.02031 -0.601,-0.30049 -11.2719,0 -12.1218,0 -2.6937,0 -5.3875,0 -8.0812,0 -1.3469,0 -2.734,-0.32666 -4.0406,0 -2.9218,0.73044 -5.1595,3.31017 -8.0812,4.04061 -1.3067,0.32666 -2.7629,-0.42592 -4.0407,0 -0.9035,0.30117 -1.1684,1.59439 -2.0203,2.02031 -0.6023,0.30117 -1.3814,-0.21296 -2.0203,0 -1.4285,0.47619 -2.612,1.54411 -4.0406,2.0203 -1.2777,0.42592 -2.8359,-0.60234 -4.0406,0 -0.8518,0.42592 -1.1685,1.59439 -2.0203,2.02031 -0.6023,0.30117 -1.3469,0 -2.0203,0 -1.3469,0 -2.734,-0.32667 -4.0406,0 -1.4609,0.36522 -2.5797,1.65508 -4.0406,2.0203 -2.6133,0.65333 -5.4679,-0.65333 -8.0812,0 -1.4609,0.36522 -2.6121,1.54412 -4.0406,2.02031 -0.7862,0.26205 -5.7474,-0.31353 -6.061,0 -0.4762,0.47619 0,1.34687 0,2.0203 0,0.67344 -0.4762,1.54412 0,2.02031 0.4762,0.47619 2.0203,0.67343 2.0203,0 0,-0.67344 -1.3468,0 -2.0203,0 -0.6734,0 -1.3468,0 -2.0203,0 -0.6734,0 -1.5441,0.47619 -2.0203,0 -0.4762,-0.47619 0.6024,-1.71914 0,-2.02031 -1.5937,-1.80701 -4.2539,0.90351 -6.0609,0 -0.8518,-0.42592 -1.1685,-1.59439 -2.0203,-2.0203 -0.6023,-0.30117 -1.5441,0.47619 -2.0203,0 -0.4762,-0.47619 0.4762,-1.54412 0,-2.02031 -0.4762,-0.47619 -1.5441,0.47619 -2.0203,0 -0.9524,-0.95238 0.9524,-3.08823 0,-4.04061 -0.4762,-0.47619 -1.5441,0.47619 -2.0203,0 -0.4762,-0.47619 -0.4762,-1.54411 0,-2.0203 0.065,-0.065 5.5709,0 6.0609,0 0.9526,0 10.01,-0.0916 10.1015,0 1.0102,1.01015 -1.0101,5.05076 0,6.06091 0.4762,0.47619 1.5441,-0.47619 2.0203,0 0.065,0.065 0,5.57094 0,6.06092 0,0.67343 0,1.34687 0,2.0203 0,0.67344 0.4762,1.54412 0,2.02031 -0.9523,0.95238 -3.0882,-0.95238 -4.0406,0 -0.4762,0.47619 0.4762,1.54411 0,2.0203 -0.4762,0.47619 -1.3468,0 -2.0203,0 -0.6734,0 -1.5441,0.47619 -2.0203,0 -0.4762,-0.47619 0.4762,-1.54411 0,-2.0203 -1.0101,-1.01016 -5.0507,1.01015 -6.0609,0 -0.9524,-0.95238 0.9524,-3.08823 0,-4.04061 -0.4762,-0.47619 -1.5441,0.47619 -2.0203,0 -0.4762,-0.47619 -0.4762,-1.54412 0,-2.02031 0.4763,-0.47619 1.3469,0 2.0203,0"
       id="path3030" />
    <rect
       style="fill:#ff6600"
       id="rect3022-7"
       width="565.68549"
       height="90.913727"
       x="-1414.7413"
       y="383.55502" />
    <text
       xml:space="preserve"
       style="font-size:40px;font-style:normal;font-weight:normal;text-align:center;text-anchor:middle;fill:#000000;fill-opacity:1;stroke:none;font-family:Bitstream Vera Sans"
       x="-1133.9188"
       y="441.1337"
       id="text3054"><tspan
         sodipodi:role="line"
         id="tspan3056"
         x="-1133.9188"
         y="441.1337">ADC (head+micro phones)</tspan></text>
    <path
       style="fill:none;stroke:#000000;stroke-width:1px;stroke-linecap:butt;stroke-linejoin:miter;stroke-opacity:1"
       d="m -1637.3375,307.54843 c -0.6023,-1.2047 0.6024,-2.8359 0,-4.0406 -0.4259,-0.8518 -1.5944,-1.1685 -2.0203,-2.0203 -0.6023,-1.2047 0.9524,-3.0882 0,-4.0406 -0.4762,-0.4762 -1.5441,0.4762 -2.0203,0 -0.4762,-0.4762 0.4762,-1.5441 0,-2.0203 -0.4762,-0.4762 -1.5441,0.4762 -2.0203,0 -0.9524,-0.9524 0.9524,-3.0883 0,-4.0406 -0.4762,-0.4762 -1.5441,0.4762 -2.0203,0 -0.4762,-0.4762 0.4762,-1.5442 0,-2.0203 -1.0101,-1.01019 -5.0508,1.0101 -6.0609,0 -0.4762,-0.4762 0.4762,-1.54415 0,-2.02034 -0.4762,-0.47619 -1.3469,0 -2.0203,0 -4.7141,0 -9.4281,0 -14.1422,0 -5.3874,0 -10.7749,0 -16.1624,0 -0.6734,0 -1.3469,0 -2.0203,0 -0.6734,0 -1.5441,-0.47619 -2.0203,0 -0.4762,0.47619 0.4762,1.54414 0,2.02034 -0.4762,0.4761 -1.5441,-0.4762 -2.0203,0 0,5.3874 0.6734,-0.6735 -2.0203,2.0203 -0.4762,0.4762 0.4762,1.5441 0,2.0203 -0.4762,0.4762 -1.5441,-0.4762 -2.0203,0 -0.9524,0.9523 0.9524,3.0882 0,4.0406 -0.4762,0.4762 -1.5441,-0.4762 -2.0203,0 -0.4762,0.4762 0.4762,1.5441 0,2.0203 -0.4762,0.4762 -1.5441,-0.4762 -2.0203,0 -0.9524,0.9524 0.9523,3.0882 0,4.0406 -0.4762,0.4762 -1.5442,-0.4762 -2.0203,0 -0.676,0.6759 0.6759,3.3647 0,4.0406 -0.4762,0.4762 -1.5442,-0.4762 -2.0203,0 -0.9523,0.9524 0.9523,3.0882 0,4.0406 -0.4762,0.4762 -1.5441,-0.4762 -2.0203,0 -0.9523,0.9524 0.9524,3.0882 0,4.0406 -0.4761,0.4762 -1.5441,-0.4762 -2.0203,0 -0.9523,0.9524 0.9524,3.0883 0,4.0406 -0.4761,0.4762 -1.5441,-0.4762 -2.0203,0 -0.091,0.092 0,9.149 0,10.1016 0,0.6734 0.4762,1.5441 0,2.0203 -0.4762,0.4762 -1.5441,-0.4762 -2.0203,0 -0.081,0.081 0,7.3393 0,8.0812 0,0.6734 -0.4762,1.5441 0,2.0203 0.4762,0.4762 1.5441,-0.4762 2.0203,0 0.9524,0.9524 -0.9523,3.0882 0,4.0406 0.4762,0.4762 1.5442,-0.4762 2.0203,0 0.6649,0.6648 -0.6648,3.3758 0,4.0406 0.4762,0.4762 1.5442,-0.4762 2.0203,0 0.9524,0.9524 -0.9523,3.0882 0,4.0406 0.4762,0.4762 1.5441,-0.4762 2.0203,0 0.9523,0.9524 -0.9523,3.0882 0,4.0406 0.4761,0.4762 1.5441,-0.4762 2.0203,0 0,5.3875 -0.6735,-0.6734 2.0203,2.0203 0.9523,0.9524 -0.9524,3.0883 0,4.0406 0.4762,0.4762 1.5441,-0.4761 2.0203,0 0.4762,0.4762 -0.4762,1.5442 0,2.0204 0.4762,0.4761 1.5441,-0.4762 2.0203,0 0.4762,0.4761 -0.4762,1.5441 0,2.0203 0.4762,0.4761 1.5441,-0.4762 2.0203,0 0.4762,0.4761 -0.4762,1.5441 0,2.0203 0.4762,0.4762 1.5441,-0.4762 2.0203,0 0.4762,0.4762 -0.4762,1.5441 0,2.0203 0.9524,0.9523 3.0882,-0.9524 4.0406,0 0.4762,0.4762 -0.4762,1.5441 0,2.0203 0.4762,0.4762 1.5441,-0.4762 2.0203,0 0.4762,0.4762 -0.4762,1.5441 0,2.0203 0.9524,0.9524 3.0882,-0.9524 4.0406,0 0.4762,0.4762 -0.4762,1.5441 0,2.0203 1.0102,1.0101 5.0508,-1.0102 6.0609,0 0.4762,0.4762 -0.4762,1.5441 0,2.0203 0.4762,0.4762 1.3469,0 2.0203,0 0.6735,0 1.3469,0 2.0203,0 4.0406,0 8.0813,0 12.1219,0 0.6734,0 1.5441,0.4762 2.0203,0 0.4762,-0.4762 -0.4762,-1.5441 0,-2.0203 0.9524,-0.9524 3.0882,0.9524 4.0406,0 0.4762,-0.4762 -0.4762,-1.5441 0,-2.0203 0.4762,-0.4762 1.5441,0.4762 2.0203,0 0.4762,-0.4762 -0.4762,-1.5441 0,-2.0203 0.9524,-0.9524 3.0882,0.9524 4.0406,0 0.4762,-0.4762 -0.4762,-1.5441 0,-2.0203 0.4762,-0.4762 1.5441,0.4762 2.0203,0 0.4762,-0.4762 -0.4762,-1.5441 0,-2.0203 0.4762,-0.4762 1.5441,0.4762 2.0203,0 0.9524,-0.9524 -0.9524,-3.0883 0,-4.0406 0.4762,-0.4762 1.5441,0.4761 2.0203,0 0.4762,-0.4762 -0.4762,-1.5442 0,-2.0204 0.4762,-0.4761 1.5441,0.4762 2.0203,0 0.9524,-0.9523 -0.9523,-3.0882 0,-4.0406 0.4762,-0.4762 1.5441,0.4762 2.0203,0 0.6256,-0.6255 -0.6255,-9.4759 0,-10.1015 0.4762,-0.4762 1.5442,0.4762 2.0203,0 0.4762,-0.4762 0,-1.3469 0,-2.0203 0,-0.6734 0,-1.3469 0,-2.0203 0,-4.714 0,-9.4281 0,-14.1421 0,-1.3276 0.38,-4.9211 0,-6.061 -1.1468,-3.4404 -4.0406,-6.4749 -4.0406,-10.1015 0,-3.6265 2.8938,-6.661 4.0406,-10.1015 0.38,-1.1399 0,-4.7334 0,-6.0609 0,-0.6735 0.4762,-1.5441 0,-2.0203 -0.4761,-0.4762 -1.5441,0.4762 -2.0203,0 -0.4762,-0.4762 0,-1.3469 0,-2.0203 0,-0.6735 0,-1.3469 0,-2.0203 0,-7.40781 0,-14.8156 0,-22.22338 0,-8.08122 0,-16.16244 0,-24.24367 0,-0.67343 0,-1.34687 0,-2.0203 0,-0.67344 -0.4762,-1.54411 0,-2.02031 0.4762,-0.47619 1.5442,0.4762 2.0203,0 1.0102,-1.01015 -1.0101,-5.05076 0,-6.06091 0.4762,-0.47619 1.5442,0.47619 2.0203,0 0.9524,-0.95238 -0.6023,-2.83593 0,-4.04061 0.426,-0.85184 1.5944,-1.16847 2.0204,-2.02031 0.3011,-0.60233 -0.4762,-1.54411 0,-2.0203 0.4761,-0.47619 1.5441,0.47619 2.0203,0 0.9523,-0.95238 -0.9524,-3.08823 0,-4.04061 0.4761,-0.47619 1.5441,0.47619 2.0203,0 0.9523,-0.95238 -0.9524,-3.08823 0,-4.04061 0.4762,-0.47619 1.5441,0.47619 2.0203,0 0.4762,-0.47619 -0.4762,-1.54412 0,-2.02031 2.6937,-2.69374 2.0203,3.36718 2.0203,-2.0203 0,-0.67344 0,-1.34687 0,-2.02031 0,-0.67343 -0.4762,-1.54411 0,-2.0203 0.4762,-0.47619 1.5441,0.47619 2.0203,0 0.9524,-0.95238 -0.9524,-3.08823 0,-4.04061 0.4762,-0.47619 1.5441,0.47619 2.0203,0 0.9524,-0.95238 -0.9524,-3.08823 0,-4.04061 0.4762,-0.47619 1.5441,0.47619 2.0203,0 0.4762,-0.47619 -0.3012,-1.41797 0,-2.02031 1.2122,-2.42436 4.8487,-3.63655 6.0609,-6.06091 0.3012,-0.60234 -0.3012,-1.41797 0,-2.02031 0.4259,-0.85183 1.3469,-1.34687 2.0203,-2.0203 0.6734,-0.67344 1.1685,-1.59439 2.0203,-2.02031 0.6024,-0.30117 1.418,0.30117 2.0203,0 0.8519,-0.42592 1.3469,-1.34687 2.0203,-2.0203 0.6735,-0.67344 1.5944,-1.16847 2.0203,-2.02031 0.3012,-0.60234 -0.4762,-1.54411 0,-2.0203 0.9524,-0.95238 3.0883,0.95238 4.0406,0 0.4762,-0.47619 -0.4762,-1.54412 0,-2.02031 0.9524,-0.95238 3.0883,0.95238 4.0406,0 0.4762,-0.47619 -0.4761,-1.54411 0,-2.0203 0.9524,-0.95238 3.0883,0.95238 4.0407,0 0.4761,-0.47619 -0.4762,-1.54412 0,-2.02031 0.081,-0.0813 7.3392,0 8.0812,0 0.7419,0 7.9999,-0.0813 8.0812,0 0.4762,0.47619 -0.4762,1.54412 0,2.02031 1.0102,1.01015 5.0508,-1.01016 6.0609,0 0.4762,0.47619 -0.4762,1.54411 0,2.0203 0.9524,0.95238 3.0882,-0.95238 4.0406,0 0.4762,0.47619 -0.4762,1.54412 0,2.02031 0.413,0.41302 5.2599,-0.40052 6.0609,0 0.8519,0.42591 1.1685,1.59438 2.0203,2.0203 0.6024,0.30117 1.418,-0.30117 2.0204,0 0.8518,0.42592 1.1684,1.59439 2.0203,2.02031 0.6023,0.30117 1.4179,-0.30117 2.0203,0 0.8518,0.42592 1.1168,1.71913 2.0203,2.0203 1.2777,0.42592 2.7628,-0.42592 4.0406,0 0.9035,0.30117 1.1684,1.59439 2.0203,2.02031 0.6023,0.30117 1.4179,-0.30117 2.0203,0 0.8518,0.42592 1.1685,1.59438 2.0203,2.0203 1.2047,0.60234 3.0882,-0.95238 4.0406,0 0.4762,0.47619 -0.4762,1.54412 0,2.02031 0.9524,0.95238 3.0882,-0.95238 4.0406,0 0.4762,0.47619 -0.4762,1.54411 0,2.0203 0.9524,0.95238 3.0883,-0.95238 4.0407,0 0.4762,0.47619 -0.4762,1.54412 0,2.02031 0.4762,0.47619 1.5441,-0.47619 2.0203,0 0.4762,0.47619 -0.4762,1.54411 0,2.0203 0.4762,0.47619 1.5441,-0.47619 2.0203,0 0.4762,0.47619 -0.3012,1.41797 0,2.02031 0.4259,0.85183 1.5944,1.16847 2.0203,2.0203 0.3011,0.60234 -0.4762,1.54412 0,2.02031 0.4762,0.47619 1.5441,-0.47619 2.0203,0 0.9524,0.95238 -0.6024,2.83593 0,4.04061 0.4259,0.85183 1.5944,1.16847 2.0203,2.0203 0.3012,0.60234 -0.3012,1.41797 0,2.02031 0.4259,0.85183 1.5944,1.16847 2.0203,2.0203 0.6023,1.20468 -0.9524,3.08823 0,4.04061 0.4762,0.47619 1.5441,-0.47619 2.0203,0 0.065,0.065 0,5.57094 0,6.06092 0,5.38748 -0.6734,-0.67344 2.0203,2.0203 0.413,0.41303 -0.4005,5.25988 0,6.06092 0.4259,0.85183 1.5944,1.16847 2.0203,2.0203 0.6023,1.20468 -0.6023,2.83594 0,4.04061 0.4259,0.85184 1.5944,1.16847 2.0203,2.02031 0.6024,1.20468 -0.6023,2.83593 0,4.04061 0.4259,0.85184 1.5944,1.16847 2.0203,2.02031 0.4005,0.80103 -0.413,5.64789 0,6.06091 0.4762,0.47619 1.5441,-0.47619 2.0203,0 0.9524,0.95238 -0.9524,3.08823 0,4.04061 0.4762,0.47619 1.5441,-0.47619 2.0203,0 1.0102,1.01015 -1.0101,5.05076 0,6.06092 0.4762,0.47619 1.5441,-0.47619 2.0203,0 0.6256,0.62558 -0.6255,9.47594 0,10.10152 0.4762,0.47619 1.5441,-0.47619 2.0203,0 0.4762,0.47619 0,1.34687 0,2.02031 0,4.71404 0,9.42806 0,14.14216 0,5.3874 0,10.7749 0,16.1624 0,0.6734 0,1.3469 0,2.0203 0,0.6734 0.4762,1.5441 0,2.0203 -0.4762,0.4762 -1.5441,-0.4762 -2.0203,0 -0.9523,0.9524 0.9524,3.0882 0,4.0406 -0.4762,0.4762 -1.5441,-0.4762 -2.0203,0 -0.9524,0.9524 0.6024,2.836 0,4.0406 -0.4259,0.8519 -1.5944,1.1685 -2.0203,2.0203 -0.3011,0.6024 0.4762,1.5442 0,2.0203 -0.4762,0.4762 -1.5441,-0.4761 -2.0203,0 -0.9524,0.9524 0.9524,3.0883 0,4.0407 -0.4762,0.4761 -1.5441,-0.4762 -2.0203,0 -0.9524,0.9523 0.9524,3.0882 0,4.0406 -0.4762,0.4762 -1.5441,-0.4762 -2.0203,0 -0.4762,0.4762 0.4762,1.5441 0,2.0203 -0.4762,0.4762 -1.5441,-0.4762 -2.0203,0 -0.9524,0.9524 0.9524,3.0882 0,4.0406 -0.4762,0.4762 -1.5441,-0.4762 -2.0203,0 -0.4762,0.4762 0.4762,1.5441 0,2.0203 -0.4762,0.4762 -1.5441,-0.4762 -2.0203,0 -0.4762,0.4762 0.4762,1.5441 0,2.0203 -0.4762,0.4762 -1.5441,-0.4762 -2.0203,0 -0.4762,0.4762 0.4762,1.5441 0,2.0203 -0.9524,0.9524 -3.0882,-0.9524 -4.0406,0 -0.4762,0.4762 0.4762,1.5441 0,2.0203 -0.9524,0.9524 -3.0883,-0.9524 -4.0406,0 -0.4762,0.4762 0.4762,1.5441 0,2.0203 -0.9524,0.9524 -3.0883,-0.9524 -4.0406,0 -0.4762,0.4762 0.4761,1.5441 0,2.0203 -0.4762,0.4762 -1.3469,0 -2.0204,0 -0.6734,0 -1.3469,0 -2.0203,0 -1.3469,0 -2.6937,0 -4.0406,0 -0.6734,0 -2.0203,0.6734 -2.0203,0 0,-2.8621 9.4281,5.7242 -2.0203,0 -0.6024,-0.3012 0.4762,-1.5441 0,-2.0203 -0.4762,-0.4762 -1.418,0.3012 -2.0203,0 -0.8519,-0.4259 -1.1685,-1.5944 -2.0203,-2.0203 -0.6024,-0.3012 -1.5441,0.4762 -2.0203,0 -0.4762,-0.4762 0.4762,-1.5441 0,-2.0203 -0.4762,-0.4762 -1.5441,0.4762 -2.0203,0 -0.4762,-0.4762 0.4762,-1.5441 0,-2.0203 -0.4762,-0.4762 -1.5441,0.4762 -2.0203,0 -0.9524,-0.9524 0.9523,-3.0882 0,-4.0406 -0.4762,-0.4762 -1.5442,0.4762 -2.0203,0 -0.4762,-0.4762 0.4761,-1.5441 0,-2.0203 -0.4762,-0.4762 -1.5442,0.4762 -2.0203,0 -0.081,-0.081 0,-7.3393 0,-8.0812 0,-6.061 0,-12.1219 0,-18.1828 0,-0.6734 0,-1.3469 0,-2.0203 0,-0.6734 -0.4762,-1.5441 0,-2.0203 0.4761,-0.4762 1.5441,0.4762 2.0203,0 0.6648,-0.6648 -0.6649,-3.3758 0,-4.0406 0.4761,-0.4762 1.3468,0 2.0203,0 0,-0.6734 -0.4762,-1.5441 0,-2.0203 0.4762,-0.4762 1.5441,0.4762 2.0203,0 0.9523,-0.9524 -0.9524,-3.0882 0,-4.0406 0.4762,-0.4762 1.5441,0.4762 2.0203,0 0.4762,-0.4762 -0.4762,-1.5441 0,-2.0203 0.4762,-0.4762 1.5441,0.4762 2.0203,0 0.4762,-0.4762 -0.4762,-1.5441 0,-2.0203 0.4762,-0.4762 1.5441,0.4762 2.0203,0 0.4762,-0.4762 -0.4762,-1.5441 0,-2.0203 0.4762,-0.4762 1.5441,0.4762 2.0203,0 0.4762,-0.4762 -0.4762,-1.5442 0,-2.0203 0.4762,-0.4762 1.5441,0.4761 2.0203,0 0.4762,-0.4762 -0.4762,-1.54415 0,-2.02034 0.4762,-0.47619 1.5441,0.47619 2.0203,0 0.4762,-0.47619 -0.4762,-1.54412 0,-2.02031 0.4762,-0.47619 1.5441,0.47619 2.0203,0 0.4762,-0.47619 -0.4762,-1.54411 0,-2.0203 0.4762,-0.47619 1.5441,0.47619 2.0203,0 0.4762,-0.47619 -0.4762,-1.54412 0,-2.02031 0.9524,-0.95238 3.0883,0.95238 4.0407,0 0.4761,-0.47619 -0.4762,-1.54411 0,-2.0203 0.065,-0.065 5.5709,0 6.0609,0 4.714,0 9.4281,0 14.1421,0 2.0203,0 4.0406,0 6.0609,0 0.6735,0 2.0203,-0.67344 2.0203,0 0,0.67343 -2.6937,0 -2.0203,0 1.3469,0 2.836,-0.60234 4.0406,0 0.6024,0.30117 -0.4762,1.54411 0,2.0203 0.4762,0.47619 1.418,-0.30117 2.0203,0 0.8519,0.42592 1.1685,1.59439 2.0203,2.02031 0.6024,0.30117 1.5442,-0.47619 2.0203,0 0.4762,0.47619 -0.4761,1.54411 0,2.0203 0.9524,0.95238 3.0883,-0.95238 4.0407,0 0.4761,0.47619 -0.4762,1.54412 0,2.02031 0.4761,0.47619 1.5441,-0.47619 2.0203,0 0.4762,0.47619 0.4762,1.54414 0,2.02034 -0.4762,0.4761 -1.3469,0 -2.0203,0 -0.49,0 -5.996,0.065 -6.061,0 -0.4761,-0.4762 0.4762,-1.54415 0,-2.02034 -0.4761,-0.47619 -1.3468,0 -2.0203,0"
       id="path3058" />
    <path
       style="fill:none;stroke:#000000;stroke-width:1px;stroke-linecap:butt;stroke-linejoin:miter;stroke-opacity:1"
       d="m -1665.6218,279.26417 c 0,-7.40779 0,-14.81557 0,-22.22336 0,-0.48998 -0.065,-5.99594 0,-6.06091 0.4762,-0.4762 1.5442,0.47619 2.0204,0 0.6255,-0.62559 -0.6256,-9.47595 0,-10.10153 0.4761,-0.47619 1.5441,0.47619 2.0203,0 0.4761,-0.47619 0,-1.34687 0,-2.02031 0,-0.95256 -0.092,-10.00996 0,-10.10152 0.4761,-0.47619 1.5441,0.47619 2.0203,0 0.6255,-0.62558 -0.6256,-9.47594 0,-10.10153 0.4762,-0.47619 1.5441,0.47619 2.0203,0 0.4762,-0.47619 0,-1.34687 0,-2.0203 0,-0.67344 0,-1.34687 0,-2.02031 0,-0.67343 0,-1.34687 0,-2.0203 0,-0.67344 -0.4762,-1.54412 0,-2.02031 0.4762,-0.47619 1.5441,0.47619 2.0203,0 0.4861,-0.48614 -0.4862,-7.59507 0,-8.08122 0.4762,-0.47619 1.5441,0.47619 2.0203,0 1.0101,-1.01015 -1.0102,-5.05076 0,-6.06091 0.4762,-0.47619 1.5441,0.47619 2.0203,0 0.9524,-0.95238 -0.6024,-2.83594 0,-4.04061 0.4259,-0.85184 1.5944,-1.16847 2.0203,-2.02031 0.3012,-0.60234 -0.4762,-1.54411 0,-2.0203 0.4762,-0.47619 1.5441,0.47619 2.0203,0 0.9524,-0.95238 -0.9524,-3.08823 0,-4.04061 0.4762,-0.47619 1.5441,0.47619 2.0203,0 0.4762,-0.47619 -0.4762,-1.54412 0,-2.02031 0.4762,-0.47619 1.5441,0.47619 2.0203,0 0.4762,-0.47619 -0.4762,-1.54411 0,-2.0203 0.4762,-0.47619 1.5441,0.47619 2.0203,0 0.9524,-0.95238 -0.9524,-3.08823 0,-4.04061 0.4762,-0.47619 1.5441,0.47619 2.0203,0 0.4762,-0.47619 -0.4762,-1.54412 0,-2.02031 0.4762,-0.47619 1.5441,0.47619 2.0203,0 0.4762,-0.47619 -0.4762,-1.54411 0,-2.0203 0.4762,-0.47619 1.5441,0.47619 2.0203,0 0.9524,-0.95238 -0.9523,-3.08823 0,-4.04061 0.4762,-0.47619 1.5442,0.47619 2.0203,0 0.4762,-0.47619 -0.4761,-1.54412 0,-2.02031 0.4762,-0.47619 1.5442,0.47619 2.0203,0 0.4762,-0.47619 -0.4761,-1.54411 0,-2.0203 0.4762,-0.47619 1.5442,0.47619 2.0204,0 0.4761,-0.47619 -0.4762,-1.54412 0,-2.02031 0.4761,-0.47619 1.5441,0.47619 2.0203,0 0.4761,-0.47619 -0.4762,-1.54411 0,-2.0203 0.4761,-0.47619 1.4179,0.30117 2.0203,0 0.8518,-0.42592 1.1684,-1.59439 2.0203,-2.02031 0.6023,-0.30117 1.5441,0.47619 2.0203,0 0.4762,-0.47619 -0.4762,-1.54411 0,-2.0203 0.4762,-0.47619 1.5441,0.47619 2.0203,0 0.4762,-0.47619 -0.4762,-1.54412 0,-2.02031 0.4762,-0.47619 1.4179,0.30117 2.0203,0 0.8518,-0.42592 1.1685,-1.59439 2.0203,-2.0203 1.2047,-0.60234 3.0882,0.95238 4.0406,0 0.4762,-0.47619 -0.4762,-1.54412 0,-2.02031 1.0101,-1.01015 5.0508,1.01015 6.0609,0 0.4762,-0.47619 -0.4762,-1.54411 0,-2.0203 0.7092,-0.70917 8.706,0.69774 10.1015,0 0.8519,-0.42592 1.1685,-1.59439 2.0203,-2.02031 0.6149,-0.30742 5.1511,0 6.061,0 5.3874,0 10.7749,0 16.1624,0 4.0406,0 8.0812,0 12.1218,0 0.6735,0 1.3469,0 2.0203,0 0.6735,0 1.418,-0.30117 2.0203,0 0.8519,0.42592 1.1168,1.71914 2.0203,2.02031 1.2778,0.42591 2.6938,0 4.0407,0 0.6734,0 1.4179,-0.30117 2.0203,0 1.7036,0.85183 2.3369,3.18877 4.0406,4.04061 0.6023,0.30117 1.3814,-0.21296 2.0203,0 1.4285,0.47619 2.612,1.54411 4.0406,2.0203 1.2777,0.42592 3.0882,-0.95238 4.0406,0 0.4762,0.47619 -0.4762,1.54412 0,2.02031 0.9524,0.95238 3.0882,-0.95239 4.0406,0 0.4762,0.47619 -0.4762,1.54411 0,2.0203 0.9524,0.95238 3.0883,-0.95238 4.0407,0 0.4761,0.47619 -0.4762,1.54412 0,2.02031 0.4761,0.47619 1.5441,-0.47619 2.0203,0 0.4762,0.47619 -0.4762,1.54411 0,2.0203 0.4762,0.47619 1.5441,-0.47619 2.0203,0 0.4762,0.47619 -0.3012,1.41797 0,2.02031 0.4259,0.85183 1.3468,1.34687 2.0203,2.0203 0.6734,0.67344 1.1684,1.59439 2.0203,2.02031 0.6023,0.30117 1.5441,-0.47619 2.0203,0 0.4762,0.47619 -0.3012,1.41796 0,2.0203 0.4259,0.85184 1.5944,1.16847 2.0203,2.02031 0.3012,0.60234 -0.3012,1.41796 0,2.0203 0.8518,1.70367 3.1888,2.33694 4.0406,4.04061 0.3012,0.60234 -0.3012,1.41797 0,2.02031 0.4259,0.85183 1.5944,1.16847 2.0203,2.0203 0.3012,0.60234 -0.3012,1.41797 0,2.02031 0.8518,1.70367 3.1888,2.33694 4.0406,4.04061 0.6024,1.20467 -0.9524,3.08823 0,4.04061 0.4762,0.47619 1.5441,-0.47619 2.0203,0 0.413,0.41302 -0.4005,5.25988 0,6.06091 0.4259,0.85184 1.5944,1.16847 2.0203,2.02031 0.6024,1.20468 -0.9524,3.08823 0,4.04061 0.4762,0.47619 1.5441,-0.47619 2.0203,0 0.7092,0.70916 -0.6977,8.70603 0,10.10152 0.4259,0.85184 1.5944,1.16847 2.0203,2.02031 0.8082,1.61624 -0.8081,4.44467 0,6.06091 0.426,0.85184 1.7192,1.1168 2.0203,2.02031 0,9.197 -0.9523,0.11554 2.0203,6.06091 0.6024,1.20468 -0.9523,3.08823 0,4.04061 0.4762,0.47619 1.5442,-0.47619 2.0203,0 0.9524,0.95239 -0.9523,3.08823 0,4.04061 0.4762,0.4762 1.5442,-0.47619 2.0204,0 0.9523,0.95239 -0.9524,3.08823 0,4.04061 0.4761,0.4762 1.5441,-0.47619 2.0203,0 0.081,0.0813 0,7.3393 0,8.08123 0,4.71404 0,9.42809 0,14.14213 0,0.67344 0.4761,1.54412 0,2.02031 -0.4762,0.47619 -1.5442,-0.47619 -2.0203,0 -0.4862,0.48614 0.4861,7.59507 0,8.08122 -2.6938,2.69374 -2.0204,-3.36718 -2.0204,2.0203"
       id="path3060" />
    <path
       style="fill:none;stroke:#000000;stroke-width:1px;stroke-linecap:butt;stroke-linejoin:miter;stroke-opacity:1"
       d="m -1657.5405,301.48753 c -0.7067,-0.1402 -5.8054,0.2556 -6.0609,0 -0.4762,-0.4762 0.4761,-1.5441 0,-2.0203 -0.4762,-0.4762 -1.3469,0 -2.0204,0 -4.714,0 -9.428,0 -14.1421,0 -0.49,0 -5.9959,-0.065 -6.0609,0 -0.4762,0.4762 0.4762,1.5441 0,2.0203 -0.6743,0.6743 -3.3663,-0.6744 -4.0406,0 -0.4762,0.4762 0.4762,1.5441 0,2.0203 -0.9524,0.9524 -3.0882,-0.9524 -4.0406,0 -0.4762,0.4762 0.4762,1.5441 0,2.0203 -0.6744,0.6743 -3.3663,-0.6743 -4.0406,0 0,5.3875 0.6734,-0.6734 -2.0203,2.0203 -0.9524,0.9524 0.9523,3.0882 0,4.0406 -0.4762,0.4762 -1.5442,-0.4762 -2.0203,0 -0.065,0.065 0,5.571 0,6.0609 0,0.742 -0.081,7.9999 0,8.0812 0.4761,0.4762 1.5441,-0.4761 2.0203,0 0.9523,0.9524 -0.9524,3.0883 0,4.0407 0.4761,0.4761 1.5441,-0.4762 2.0203,0 0.4762,0.4761 -0.4762,1.5441 0,2.0203 0.4762,0.4762 1.5441,-0.4762 2.0203,0 0.4762,0.4762 -0.4762,1.5441 0,2.0203 0.4762,0.4762 1.5441,-0.4762 2.0203,0 0.4762,0.4762 -0.4762,1.5441 0,2.0203 0.4762,0.4762 1.5441,-0.4762 2.0203,0 0.9524,0.9524 -0.9524,3.0882 0,4.0406 0.4762,0.4762 1.5441,-0.4762 2.0203,0 0.4762,0.4762 -0.4762,1.5441 0,2.0203 0.4762,0.4762 1.5441,-0.4762 2.0203,0 0.9524,0.9524 -0.9524,3.0882 0,4.0406 0.4762,0.4762 1.5441,-0.4762 2.0203,0 0.4762,0.4762 -0.4762,1.5441 0,2.0203 0.9524,0.9524 3.0882,-0.9524 4.0406,0 0,5.3875 -0.6734,-0.6734 2.0203,2.0203 0.9524,0.9524 -0.9524,3.0882 0,4.0406 0.9524,0.9524 3.0882,-0.9524 4.0406,0 0.4762,0.4762 -0.4762,1.5441 0,2.0203 0.4762,0.4762 1.3469,0 2.0203,0 0.6735,0 1.3469,0 2.0203,0 0.49,0 5.996,0.065 6.0609,0 0.4762,-0.4762 -0.4761,-1.5441 0,-2.0203 0.4762,-0.4762 1.5442,0.4762 2.0204,0 4.18,-4.1801 -6.3878,0.1634 2.0203,-4.0406 0.6023,-0.3012 1.5441,0.4762 2.0203,0 1.0101,-1.0101 -1.0102,-5.0508 0,-6.0609 0.4762,-0.4762 1.5441,0.4762 2.0203,0 0.4762,-0.4762 0,-1.3469 0,-2.0203 0,-0.6734 0,-1.3469 0,-2.0203 0,-4.0406 0,-8.0812 0,-12.1218 0,-0.6735 -0.4762,-1.5442 0,-2.0204 0.4762,-0.4761 1.5441,0.4762 2.0203,0 0.9524,-0.9523 -0.9524,-3.0882 0,-4.0406 0.4762,-0.4762 1.5441,0.4762 2.0203,0 0.4762,-0.4762 -0.1107,-1.356 0,-2.0203 0.5645,-3.3871 3.226,-6.8863 2.0203,-10.1015 -1.1823,-3.1528 -10.1015,-3.3672 -8.0812,-6.0609 2.0203,-2.6937 5.3874,4.0406 8.0812,6.0609"
       id="path3062" />
    <path
       style="fill:none;stroke:#000000;stroke-width:1px;stroke-linecap:butt;stroke-linejoin:miter;stroke-opacity:1"
       d="m -1677.7436,315.62963 c 1.7037,0.8519 2.337,3.1888 4.0406,4.0406 5.9454,2.9727 -2.6599,-4.6802 4.0406,2.0203 0.6735,0.6735 1.3469,1.3469 2.0203,2.0203 0.6735,0.6735 1.1685,1.5944 2.0203,2.0203 0.6024,0.3012 1.5442,-0.4761 2.0204,0 0.4761,0.4762 -0.4762,1.5442 0,2.0204 0.9523,0.9523 3.0882,-0.9524 4.0406,0 2.6937,2.6937 -3.3672,2.0203 2.0203,2.0203"
       id="path3064" />
    <path
       style="fill:none;stroke:#000000;stroke-width:1px;stroke-linecap:butt;stroke-linejoin:miter;stroke-opacity:1"
       d="m -1667.6421,313.60933 c 0,5.3875 0.6735,-0.6734 -2.0203,2.0203 -0.9523,0.9524 0.9524,3.0883 0,4.0406 -0.4762,0.4762 -1.5441,-0.4762 -2.0203,0 -0.4762,0.4762 0.3012,1.418 0,2.0203 -0.4259,0.8519 -1.5944,1.1685 -2.0203,2.0203 -0.3011,0.6024 0.4762,1.5442 0,2.0203 -0.4762,0.4762 -1.5441,-0.4761 -2.0203,0 -0.4762,0.4762 0.4762,1.5442 0,2.0204 -0.4762,0.4761 -1.5441,-0.4762 -2.0203,0 -0.4762,0.4761 0.4762,1.5441 0,2.0203 -0.4762,0.4761 -1.5441,-0.4762 -2.0203,0 0,5.3874 0.6734,-0.6735 -2.0203,2.0203 -0.9524,0.9523 0.9524,3.0882 0,4.0406 -2.6937,2.6937 -2.0203,-3.3672 -2.0203,2.0203"
       id="path3066" />
    <path
       style="fill:none;stroke:#000000;stroke-width:1px;stroke-linecap:butt;stroke-linejoin:miter;stroke-opacity:1"
       d="m -1528.241,317.64993 c -2.6937,1.3469 -10.2108,6.1702 -8.0812,4.0406 2.7766,-2.7766 7.0352,-3.6078 10.1015,-6.0609 0.5259,-0.4207 -0.4762,-1.5441 0,-2.0203 0.4762,-0.4762 1.5442,0.4762 2.0204,0 0.4761,-0.4762 -0.4762,-1.5441 0,-2.0203 0.4761,-0.4762 1.5441,0.4762 2.0203,0 0.4762,-0.4762 -0.4762,-1.5441 0,-2.0203 0.4762,-0.4762 1.5441,0.4762 2.0203,0 0.4762,-0.4762 -0.4762,-1.5441 0,-2.0203 0.4762,-0.4762 1.5441,0.4762 2.0203,0 0.4762,-0.4762 -0.4762,-1.5441 0,-2.0203 0.4762,-0.4762 1.5441,0.4762 2.0203,0 0.4762,-0.4762 -0.4762,-1.5441 0,-2.0203 0.4762,-0.4762 1.5441,0.4762 2.0203,0 0.9524,-0.9524 -0.9524,-3.0882 0,-4.0406 0.4762,-0.4762 1.5441,0.4762 2.0203,0 0.4762,-0.4762 -0.4762,-1.5441 0,-2.0203 0.4762,-0.4762 1.5441,0.4762 2.0203,0 0.4762,-0.4762 -0.4762,-1.5441 0,-2.0203 0.4762,-0.4762 1.5441,0.4762 2.0203,0 0.4762,-0.4762 -0.6734,-2.0203 0,-2.0203 0.6734,0 -0.6734,2.0203 0,2.0203 7.125,0 -3.0829,-4.0406 4.0406,-4.0406"
       id="path3068" />
    <path
       style="fill:none;stroke:#000000;stroke-width:1px;stroke-linecap:butt;stroke-linejoin:miter;stroke-opacity:1"
       d="m -1508.0379,305.52813 c -5.3875,0 0.6734,-0.6734 -2.0203,2.0203 -0.4762,0.4762 -1.5441,-0.4762 -2.0203,0 -0.4762,0.4762 0.4762,1.5441 0,2.0203 -0.4762,0.4762 -1.5441,-0.4762 -2.0203,0 -0.4762,0.4762 0.4762,1.5441 0,2.0203 -0.4762,0.4762 -1.5441,-0.4762 -2.0203,0 -0.4762,0.4762 0.4762,1.5441 0,2.0203 -0.4762,0.4762 -1.5441,-0.4762 -2.0203,0 -0.9524,0.9524 0.9524,3.0882 0,4.0406 -0.4762,0.4762 -1.5441,-0.4762 -2.0203,0 -0.4762,0.4762 0.4762,1.5441 0,2.0203 -0.4762,0.4762 -1.5441,-0.4762 -2.0203,0 -0.4762,0.4762 0.4762,1.5441 0,2.0203 -0.4762,0.4762 -1.5442,-0.4762 -2.0203,0 -0.4762,0.4762 0.5258,1.5997 0,2.0203 -3.0664,2.4531 -7.325,3.2843 -10.1016,6.061 -2.1296,2.1295 5.3875,-2.6938 8.0812,-4.0407 l 6.061,8.0813 c 0.6734,0 1.5441,-0.4762 2.0203,0 0.4762,0.4762 0,1.3468 0,2.0203 0,3.3671 0,6.7343 0,10.1015 0,3.3672 0,6.7343 0,10.1015 0,0.6735 0.4762,1.5441 0,2.0203 -0.4762,0.4762 -1.5441,-0.4762 -2.0203,0 -1.0102,1.0102 1.0101,5.0508 0,6.0609 -0.4762,0.4762 -1.5441,-0.4761 -2.0203,0 -0.9524,0.9524 0.9523,3.0883 0,4.0407 -0.4762,0.4761 -1.5442,-0.4762 -2.0203,0 -0.9524,0.9523 0.9523,3.0882 0,4.0406 -0.4762,0.4762 -1.5442,-0.4762 -2.0204,0 -0.4762,0.4762 0.4762,1.5441 0,2.0203 -0.4762,0.4762 -1.5441,-0.4762 -2.0203,0 -0.9524,0.9524 0.9524,3.0882 0,4.0406 -0.4762,0.4762 -1.5441,-0.4762 -2.0203,0 -0.4762,0.4762 0.4762,1.5441 0,2.0203 -0.4762,0.4762 -1.5441,-0.4762 -2.0203,0 -0.4762,0.4762 0.4762,1.5441 0,2.0203 -0.4762,0.4762 -1.5441,-0.4762 -2.0203,0 -0.4762,0.4762 0.4762,1.5441 0,2.0203 -0.4762,0.4762 -1.5441,-0.4762 -2.0203,0 -0.4762,0.4762 0.4762,1.5441 0,2.0203 -0.4762,0.4762 -1.5441,-0.4762 -2.0203,0 -0.4762,0.4762 0.4762,1.5441 0,2.0203 -0.4762,0.4762 -1.5441,-0.4762 -2.0203,0 -0.4762,0.4762 0.4762,1.5441 0,2.0203 -0.4762,0.4762 -1.5441,-0.4762 -2.0203,0 -0.4762,0.4762 0.4762,1.5441 0,2.0203 -0.4762,0.4762 -1.5441,-0.4762 -2.0203,0 -0.4762,0.4762 0.4762,1.5441 0,2.0203 -0.4762,0.4762 -1.5441,-0.4762 -2.0203,0 -0.4762,0.4762 0.4762,1.5441 0,2.0203 -0.9524,0.9524 -3.0883,-0.9524 -4.0406,0 -0.4762,0.4762 0.4761,1.5441 0,2.0203 -0.4762,0.4762 -1.5442,-0.4762 -2.0204,0 -0.4761,0.4762 0.4762,1.5441 0,2.0203 -0.9523,0.9524 -3.0882,-0.9523 -4.0406,0 -0.4762,0.4762 0.4762,1.5442 0,2.0203 -0.6704,0.6704 -3.3702,-0.6704 -4.0406,0 -0.4762,0.4762 0.4762,1.5442 0,2.0203 -0.4762,0.4762 -1.3468,0 -2.0203,0 -0.6734,0 -1.3469,0 -2.0203,0 -4.0406,0 -8.0812,0 -12.1218,0 -0.6735,0 -1.5441,-0.4761 -2.0203,0 -0.4762,0.4762 0.4762,1.5442 0,2.0204 -0.065,0.065 -5.571,0 -6.0609,0 -7.4651,0 -5.426,0 -10.1016,0 -0.6734,0 -1.3468,0 -2.0203,0 -0.6734,0 -1.5441,0.4761 -2.0203,0 -0.4762,-0.4762 0.4762,-1.5442 0,-2.0204 -0.9524,-0.9523 -3.0882,0.9524 -4.0406,0 -0.4762,-0.4761 0.4762,-1.5441 0,-2.0203 -0.4762,-0.4761 -1.3469,0 -2.0203,0 -0.7419,0 -7.9999,-0.081 -8.0812,0 -0.4762,0.4762 0.4762,1.5442 0,2.0203 -0.4762,0.4762 -1.5441,-0.4761 -2.0203,0 -0.202,0.2021 -0.202,5.8589 0,6.061 0.4762,0.4762 1.5441,-0.4762 2.0203,0 0.4762,0.4762 -0.4762,1.5441 0,2.0203 0.4762,0.4762 1.5441,-0.4762 2.0203,0 1.0101,1.0101 -1.0102,5.0507 0,6.0609 0.4762,0.4762 1.5441,-0.4762 2.0203,0 0.9524,0.9524 -0.9524,3.0882 0,4.0406 0.9524,0.9524 3.0882,-0.9524 4.0406,0 0.4762,0.4762 -0.4762,1.5441 0,2.0203 0.4762,0.4762 1.5441,-0.4762 2.0203,0 0.4762,0.4762 -0.4762,1.5441 0,2.0203 0.4762,0.4762 1.5441,-0.4762 2.0203,0 0.4762,0.4762 -0.4762,1.5441 0,2.0203 0.4762,0.4762 1.3469,0 2.0203,0 4.0406,0 8.0812,0 12.1219,0 2.6937,0 5.3874,0 8.0812,0 0.6734,0 2.0203,-0.6734 2.0203,0 0,0.6734 -1.5441,0.4762 -2.0203,0 -0.065,-0.065 0,-5.5709 0,-6.0609 0,-0.6734 0,-1.3469 0,-2.0203 0,-0.6734 0.4762,-1.5441 0,-2.0203 -2.6938,-2.6938 -2.0203,3.3672 -2.0203,-2.0203 0,-0.6735 0,-1.3469 0,-2.0203 0,-0.6735 -0.4762,-1.5441 0,-2.0203 0.4762,-0.4762 2.0203,-0.6735 2.0203,0 0,0.6734 -2.6938,0 -2.0203,0 1.3468,0 2.6937,0 4.0406,0 0.6734,0 1.5441,0.4762 2.0203,0 0.4762,-0.4762 -0.4762,-1.5441 0,-2.0203 0.065,-0.065 5.5709,0 6.0609,0 6.0609,0 12.1218,0 18.1828,0 0.6734,0 1.3468,0 2.0203,0 0.6734,0 1.5441,0.4762 2.0203,0 0.4762,-0.4762 -0.4762,-1.5442 0,-2.0203 1.0101,-1.0102 5.0507,1.0101 6.0609,0 0.4762,-0.4762 -0.4762,-1.5442 0,-2.0203 0.4762,-0.4762 1.5441,0.4761 2.0203,0 0.4762,-0.4762 -0.4762,-1.5442 0,-2.0204 0.4762,-0.4761 1.5441,0.4762 2.0203,0 0.4762,-0.4761 -0.4762,-1.5441 0,-2.0203 0.4762,-0.4761 1.5441,0.4762 2.0203,0 0.4762,-0.4761 -0.4762,-1.5441 0,-2.0203 0.4762,-0.4762 1.5441,0.4762 2.0203,0 0.4762,-0.4762 -0.4762,-1.5441 0,-2.0203 0.9524,-0.9523 3.0882,0.9524 4.0406,0 0.4762,-0.4762 -0.4762,-1.5441 0,-2.0203 0.4762,-0.4762 1.5441,0.4762 2.0203,0 0.9524,-0.9524 -0.9524,-3.0882 0,-4.0406 0.4762,-0.4762 1.5442,0.4762 2.0204,0 0.4761,-0.4762 -0.4762,-1.5441 0,-2.0203 0.4761,-0.4762 1.5441,0.4762 2.0203,0 0.9523,-0.9524 -0.9524,-3.0882 0,-4.0406 0.4762,-0.4762 1.5441,0.4762 2.0203,0 0.9523,-0.9524 -0.9524,-3.0882 0,-4.0406 0.4762,-0.4762 1.5441,0.4762 2.0203,0 1.0101,-1.0102 -1.0102,-5.0508 0,-6.0609 0.4762,-0.4762 1.5441,0.4762 2.0203,0 1.0101,-1.0102 -1.0102,-5.0508 0,-6.0609 0.4762,-0.4762 1.5441,0.4762 2.0203,0 1.0101,-1.0102 -1.0102,-5.0508 0,-6.061 0.4762,-0.4761 1.5441,0.4762 2.0203,0 1.0101,-1.0101 -1.0102,-5.0507 0,-6.0609 0.4762,-0.4762 1.5441,0.4762 2.0203,0 0.9524,-0.9524 -0.9524,-3.0882 0,-4.0406 0.4762,-0.4762 1.5441,0.4762 2.0203,0 0.9524,-0.9524 -0.6023,-2.8359 0,-4.0406 0.4259,-0.8518 1.5944,-1.1685 2.0203,-2.0203 0.6023,-1.2047 -0.9524,-3.0882 0,-4.0406 0.4762,-0.4762 1.5441,0.4762 2.0203,0 0.4762,-0.4762 0,-1.3469 0,-2.0203 0,-3.3672 0,-6.7344 0,-10.1015 0,-0.49 0.065,-5.996 0,-6.061 -0.4762,-0.4761 -1.5441,0.4762 -2.0203,0 -1.0102,-1.0101 1.0102,-5.0507 0,-6.0609 -0.4762,-0.4762 -1.5441,0.4762 -2.0203,0 -0.9524,-0.9523 0.9524,-3.0882 0,-4.0406 -0.4762,-0.4762 -1.5441,0.4762 -2.0203,0 -0.4762,-0.4762 0,-1.3468 0,-2.0203 0.6734,-2.6937 4.2416,-6.4152 2.0203,-8.0812 -2.7471,-2.0603 -6.7144,1.4558 -10.1015,2.0203 -0.6643,0.1107 -1.5441,-0.4762 -2.0203,0 -0.4762,0.4762 0.4762,1.5441 0,2.0203 -0.4762,0.4762 -1.5441,-0.4762 -2.0203,0 -0.4762,0.4762 0.4762,1.5441 0,2.0203 -0.4762,0.4762 -1.5442,-0.4762 -2.0203,0 -0.4762,0.4762 0.4761,1.5441 0,2.0203 -0.4762,0.4762 -1.5442,-0.4762 -2.0204,0 -0.4762,0.4762 0,1.3469 0,2.0203 0,3.3672 0,6.7344 0,10.1015"
       id="path3070" />
    <path
       style="fill:none;stroke:#000000;stroke-width:1px;stroke-linecap:butt;stroke-linejoin:miter;stroke-opacity:1"
       d="m -1588.8501,410.58403 c 0,1.3468 4.0406,-1.3469 4.0406,0 0,0.6734 -2.0203,-0.6735 -2.0203,0 0,0.9523 1.5943,1.1684 2.0203,2.0203 0.3074,0.6148 0,5.151 0,6.0609 0,0.6734 0.4762,1.5441 0,2.0203 -0.4762,0.4762 -1.5442,-0.4762 -2.0203,0 -0.4762,0.4762 0.4761,1.5441 0,2.0203 -0.4762,0.4762 -1.5442,-0.4762 -2.0203,0 -0.4762,0.4762 0.4761,1.5441 0,2.0203 -0.4762,0.4762 -1.5442,-0.4762 -2.0204,0 -0.4761,0.4762 0.4762,1.5441 0,2.0203 -0.081,0.081 -7.3392,0 -8.0812,0 -0.6734,0 -1.3468,0 -2.0203,0 -0.6734,0 -1.5441,0.4762 -2.0203,0 -0.4762,-0.4762 0.4762,-1.5441 0,-2.0203 -0.4762,-0.4762 -1.5441,0.4762 -2.0203,0 -0.4762,-0.4762 0.4762,-1.5441 0,-2.0203 -0.4762,-0.4762 -1.5441,0.4762 -2.0203,0 -0.4762,-0.4762 0,-1.3469 0,-2.0203 0,-0.49 -0.065,-5.996 0,-6.0609 0.4762,-0.4762 1.5441,0.4762 2.0203,0 0.4762,-0.4762 0,-1.3469 0,-2.0203 2.6938,-0.6735 5.3875,-1.3469 16.1625,-2.0203 z"
       id="path3072" />
    <path
       style="fill:none;stroke:#000000;stroke-width:1px;stroke-linecap:butt;stroke-linejoin:miter;stroke-opacity:1"
       d="m -1499.9567,345.93423 c 2.1983,1.4655 1.8423,2.5751 4.0406,4.0406 1.253,0.8353 2.9758,0.9555 4.0406,2.0203 0.4762,0.4762 -0.4762,1.5441 0,2.0203 0.4762,0.4762 1.5442,-0.4762 2.0203,0 0.4762,0.4762 0,1.3469 0,2.0203 0,0.6735 0.3012,1.418 0,2.0203 -0.4259,0.8519 -1.5943,1.1685 -2.0203,2.0203 -0.3011,0.6024 0.3012,1.418 0,2.0203 -0.8518,1.7037 -3.1887,2.337 -4.0406,4.0407 -0.3011,0.6023 0.213,1.3814 0,2.0203 -4.8779,14.6339 0.5825,-3.1853 -4.0406,6.0609 -0.3012,0.6023 0.3012,1.4179 0,2.0203 -0.4259,0.8518 -1.5944,1.1684 -2.0203,2.0203 -0.3074,0.6148 0,5.151 0,6.0609 0,0.9099 -0.3074,5.4461 0,6.0609 0.4259,0.8518 1.5944,1.1685 2.0203,2.0203 0.3012,0.6024 -0.3012,1.418 0,2.0203 0.3613,0.7226 7.2411,7.5211 8.0812,8.0812 1.253,0.8353 2.7877,1.1851 4.0406,2.0203 0.7925,0.5283 1.1685,1.5944 2.0204,2.0204 0.6023,0.3011 1.3814,-0.213 2.0203,0 1.4285,0.4761 2.612,1.5441 4.0406,2.0203 0.6388,0.2129 1.5441,-0.4762 2.0203,0 0.4762,0.4761 0,1.3468 0,2.0203 0,0.6734 0.4762,1.5441 0,2.0203 -0.4762,0.4762 -1.5441,-0.4762 -2.0203,0 -0.4762,0.4762 0.3011,1.4179 0,2.0203 -1.2122,2.4243 -4.8488,3.6365 -6.0609,6.0609 -0.3012,0.6023 0.3011,1.418 0,2.0203 -0.426,0.8518 -1.5944,1.1685 -2.0204,2.0203 -0.3074,0.6148 0,5.1511 0,6.0609 0,0.6734 0,1.3469 0,2.0203 0,0.6735 -0.4761,1.5441 0,2.0203 0.4762,0.4762 1.5442,-0.4762 2.0204,0 0.4761,0.4762 -0.4762,1.5441 0,2.0203 0.4761,0.4762 1.3468,0 2.0203,0 0,0.6735 -0.4762,1.5441 0,2.0203 0.4761,0.4762 1.5441,-0.4762 2.0203,0 0.4762,0.4762 -0.4762,1.5441 0,2.0203 0.4762,0.4762 1.5441,-0.4762 2.0203,0 0.4762,0.4762 -0.4762,1.5442 0,2.0203 0.4762,0.4762 1.5441,-0.4761 2.0203,0 0.4762,0.4762 -0.4762,1.5442 0,2.0203 0.4762,0.4762 1.3468,0 2.0203,0 0.7419,0 7.9999,0.081 8.0812,0 0.4762,-0.4761 -0.4762,-1.5441 0,-2.0203 0.4762,-0.4761 1.3469,0 2.0203,0 0.6734,0 1.3469,0 2.0203,0 4.0406,0 8.0812,0 12.1218,0 0.6735,0 1.5442,-0.4761 2.0203,0 0.4762,0.4762 -0.4761,1.5442 0,2.0203 1.0102,1.0102 5.0508,-1.0101 6.061,0 0.4762,0.4762 -0.4762,1.5442 0,2.0204 0.4762,0.4761 1.3468,0 2.0203,0 5.3874,0 10.7749,0 16.1624,0"
       id="path3074" />
    <rect
       style="fill:#b3b3b3"
       id="rect3022-6"
       width="315.1676"
       height="90.913727"
       x="-601.71869"
       y="1177.8436" />
    <text
       xml:space="preserve"
       style="font-size:40px;font-style:normal;font-weight:normal;text-align:center;text-anchor:middle;fill:#000000;fill-opacity:1;stroke:none;font-family:Bitstream Vera Sans"
       x="-442.11462"
       y="1234.27"
       id="text3024-2"><tspan
         sodipodi:role="line"
         id="tspan3026-1"
         x="-442.11462"
         y="1234.27">Buttons</tspan></text>
    <rect
       style="fill:#b3b3b3"
       id="rect3022-6-7"
       width="315.1676"
       height="90.913727"
       x="-240.89632"
       y="1176.8385" />
    <text
       xml:space="preserve"
       style="font-size:40px;font-style:normal;font-weight:normal;text-align:center;text-anchor:middle;fill:#000000;fill-opacity:1;stroke:none;font-family:Bitstream Vera Sans"
       x="-81.292252"
       y="1233.265"
       id="text3024-2-8"><tspan
         sodipodi:role="line"
         id="tspan3026-1-5"
         x="-81.292252"
         y="1233.265">LEDs</tspan></text>
    <rect
       style="fill:#b3b3b3"
       id="rect3022-6-7-7"
       width="315.1676"
       height="90.913727"
       x="124.25098"
       y="1174.1482" />
    <text
       xml:space="preserve"
       style="font-size:40px;font-style:normal;font-weight:normal;text-align:center;text-anchor:middle;fill:#000000;fill-opacity:1;stroke:none;font-family:Bitstream Vera Sans"
       x="283.8551"
       y="1230.5747"
       id="text3024-2-8-4"><tspan
         sodipodi:role="line"
         id="tspan3026-1-5-1"
         x="283.8551"
         y="1230.5747">Displays</tspan></text>
    <rect
       style="fill:#b3b3b3"
       id="rect3022-6-7-5"
       width="315.1676"
       height="90.913727"
       x="493.48959"
       y="1174.798" />
    <text
       xml:space="preserve"
       style="font-size:40px;font-style:normal;font-weight:normal;text-align:center;text-anchor:middle;fill:#000000;fill-opacity:1;stroke:none;font-family:Bitstream Vera Sans"
       x="653.09363"
       y="1231.2245"
       id="text3024-2-8-9"><tspan
         sodipodi:role="line"
         id="tspan3026-1-5-7"
         x="653.09363"
         y="1231.2245">Speakers</tspan></text>
    <rect
       style="fill:url(#linearGradient6446);fill-opacity:1"
       id="rect3194"
       width="389.91888"
       height="185.86809"
       x="-658.55853"
       y="-1.9934139" />
    <text
       xml:space="preserve"
       style="font-size:40px;font-style:normal;font-weight:normal;text-align:start;text-anchor:start;fill:#000000;fill-opacity:1;stroke:none;font-family:Bitstream Vera Sans"
       x="-650.53827"
       y="54.209637"
       id="text3196"><tspan
         sodipodi:role="line"
         id="tspan3198"
         x="-650.53827"
         y="54.209637">Secure storage</tspan><tspan
         sodipodi:role="line"
         x="-650.53827"
         y="104.20964"
         id="tspan3200">Key management</tspan><tspan
         sodipodi:role="line"
         x="-650.53827"
         y="154.20964"
         id="tspan3202">Crypto calculation</tspan><tspan
         sodipodi:role="line"
         x="-650.53827"
         y="204.20964"
         id="tspan3204" /></text>
    <rect
       style="fill:url(#linearGradient6470);stroke:url(#linearGradient6454);fill-opacity:1"
       id="rect3194-1"
       width="389.91888"
       height="129.29955"
       x="-153.73105"
       y="-1.4857941" />
    <text
       xml:space="preserve"
       style="font-size:40px;font-style:normal;font-weight:normal;text-align:start;text-anchor:start;fill:#000000;fill-opacity:1;stroke:none;font-family:Bitstream Vera Sans"
       x="-145.71078"
       y="54.717247"
       id="text3196-0"><tspan
         sodipodi:role="line"
         id="tspan3198-5"
         x="-145.71078"
         y="54.717247">Audio encoding</tspan><tspan
         sodipodi:role="line"
         x="-145.71078"
         y="104.71725"
         id="tspan3202-1">FEC encoding</tspan><tspan
         sodipodi:role="line"
         x="-145.71078"
         y="154.71725"
         id="tspan3204-0" /></text>
    <rect
       style="fill:none"
       id="rect3245"
       width="1097.0256"
       height="456.58896"
       x="-751.55347"
       y="-212.3488" />
    <rect
       style="fill:none;stroke:#000000;stroke-width:0.87813175;stroke-linecap:square;stroke-linejoin:bevel;stroke-miterlimit:4;stroke-opacity:1;stroke-dasharray:0.87813175,0.87813175;stroke-dashoffset:0"
       id="rect3247"
       width="1078.8647"
       height="400.04227"
       x="-753.58472"
       y="-175.99425" />
    <rect
       style="fill:url(#linearGradient6478);fill-opacity:1"
       id="rect3194-1-2"
       width="389.91888"
       height="218.19296"
       x="866.45178"
       y="214.08923" />
    <text
       xml:space="preserve"
       style="font-size:40px;font-style:normal;font-weight:normal;text-align:start;text-anchor:start;fill:#000000;fill-opacity:1;stroke:none;font-family:Bitstream Vera Sans"
       x="874.47205"
       y="270.2923"
       id="text3196-0-5"><tspan
         sodipodi:role="line"
         id="tspan3198-5-8"
         x="874.47205"
         y="270.2923">Security configure</tspan><tspan
         sodipodi:role="line"
         x="874.47205"
         y="320.2923"
         id="tspan3202-1-6">Radio configure</tspan><tspan
         sodipodi:role="line"
         x="874.47205"
         y="370.2923"
         id="tspan6163">Testing</tspan><tspan
         sodipodi:role="line"
         x="874.47205"
         y="420.2923"
         id="tspan6165">FW upgrade</tspan><tspan
         sodipodi:role="line"
         x="874.47205"
         y="470.2923"
         id="tspan3204-0-2" /></text>
    <rect
       style="fill:none;stroke:#000000;stroke-width:0.92770708;stroke-linecap:square;stroke-linejoin:bevel;stroke-miterlimit:4;stroke-opacity:1;stroke-dasharray:0.9277071, 0.9277071;stroke-dashoffset:0"
       id="rect6199"
       width="865.66467"
       height="359.95041"
       x="417.16766"
       y="192.38696" />
    <path
       sodipodi:type="arc"
       style="fill:#ff6600;fill-opacity:1;stroke:none"
       id="path6201"
       sodipodi:cx="-351.42856"
       sodipodi:cy="458.07648"
       sodipodi:rx="320"
       sodipodi:ry="94.285713"
       d="m -31.428558,458.07648 a 320,94.285713 0 1 1 -640.000002,0 320,94.285713 0 1 1 640.000002,0 z"
       transform="matrix(0.73214286,0,0,0.59090908,-51.275507,191.68064)" />
    <flowRoot
       xml:space="preserve"
       id="flowRoot6215"
       style="font-size:40px;font-style:normal;font-weight:normal;text-align:start;text-anchor:start;fill:#000000;fill-opacity:1;stroke:none;font-family:Bitstream Vera Sans"
       transform="translate(42.857143,22.857143)"><flowRegion
         id="flowRegion6217"><rect
           id="rect6219"
           width="394.28571"
           height="97.14286"
           x="-534.28571"
           y="412.36218" /></flowRegion><flowPara
         id="flowPara6221">Transceiving driver</flowPara></flowRoot>    <rect
       style="fill:#ff6600"
       id="rect3022-7-9"
       width="565.68549"
       height="90.913727"
       x="-1414.2714"
       y="509.76248" />
    <text
       xml:space="preserve"
       style="font-size:40px;font-style:normal;font-weight:normal;text-align:center;text-anchor:middle;fill:#000000;fill-opacity:1;stroke:none;font-family:Bitstream Vera Sans"
       x="-1133.449"
       y="567.34113"
       id="text3054-1"><tspan
         sodipodi:role="line"
         id="tspan3056-9"
         x="-1133.449"
         y="567.34113">Transceiver</tspan></text>
    <rect
       style="fill:none;stroke:#000000;stroke-width:0.85541576;stroke-opacity:1"
       id="rect6251"
       width="1228.7159"
       height="554.43036"
       x="-2060.0723"
       y="109.43274" />
    <path
       sodipodi:type="arc"
       style="fill:#ff6600;fill-opacity:1;stroke:none"
       id="path6201-6"
       sodipodi:cx="-351.42856"
       sodipodi:cy="458.07648"
       sodipodi:rx="320"
       sodipodi:ry="94.285713"
       d="m -31.428558,458.07648 a 320,94.285713 0 1 1 -640.000002,0 320,94.285713 0 1 1 640.000002,0 z"
       transform="matrix(0.73214286,0,0,0.59090908,968.72441,204.53777)" />
    <flowRoot
       transform="translate(-102.28809,323.70119)"
       style="font-size:40px;font-style:normal;font-weight:normal;fill:#000000;fill-opacity:1;stroke:none;font-family:Bitstream Vera Sans"
       id="flowRoot6275"
       xml:space="preserve"><flowRegion
         id="flowRegion6277"><rect
           y="127.06245"
           x="694.98492"
           height="88.893425"
           width="321.22852"
           id="rect6279" /></flowRegion><flowPara
         id="flowPara6281">USB monitor</flowPara></flowRoot>    <rect
       style="fill:url(#linearGradient6462);fill-opacity:1"
       id="rect3194-1-2-3"
       width="389.91888"
       height="132.47868"
       x="-146.38802"
       y="286.12283" />
    <text
       xml:space="preserve"
       style="font-size:40px;font-style:normal;font-weight:normal;text-align:start;text-anchor:start;fill:#000000;fill-opacity:1;stroke:none;font-family:Bitstream Vera Sans"
       x="-138.36775"
       y="342.32587"
       id="text3196-0-5-6"><tspan
         sodipodi:role="line"
         id="tspan3198-5-8-8"
         x="-138.36775"
         y="342.32587">Channel data</tspan><tspan
         sodipodi:role="line"
         x="-138.36775"
         y="392.32587"
         id="tspan6325">handling</tspan><tspan
         sodipodi:role="line"
         x="-138.36775"
         y="442.32587"
         id="tspan3204-0-2-7" /></text>
    <path
       sodipodi:type="arc"
       style="fill:#ff6600;fill-opacity:1;stroke:none"
       id="path6201-2"
       sodipodi:cx="-351.42856"
       sodipodi:cy="458.07648"
       sodipodi:rx="320"
       sodipodi:ry="94.285713"
       d="m -31.428558,458.07648 a 320,94.285713 0 1 1 -640.000002,0 320,94.285713 0 1 1 640.000002,0 z"
       transform="matrix(0.73214286,0,0,0.59090908,357.29592,715.96635)" />
    <flowRoot
       xml:space="preserve"
       id="flowRoot6215-7"
       style="font-size:40px;font-style:normal;font-weight:normal;text-align:center;text-anchor:middle;fill:#000000;fill-opacity:1;stroke:none;font-family:Bitstream Vera Sans"
       transform="translate(451.42857,547.14286)"><flowRegion
         id="flowRegion6217-4"><rect
           id="rect6219-1"
           width="394.28571"
           height="97.14286"
           x="-534.28571"
           y="412.36218"
           style="text-align:center;text-anchor:middle" /></flowRegion><flowPara
         id="flowPara6221-0">Engine driver</flowPara></flowRoot>    <rect
       style="fill:none;stroke:#000000;stroke-width:0.87813175;stroke-linecap:square;stroke-linejoin:bevel;stroke-miterlimit:4;stroke-opacity:1;stroke-dasharray:0.87813175, 0.87813175;stroke-dashoffset:0"
       id="rect6372"
       width="1514.2858"
       height="180"
       x="-660"
       y="1126.6479" />
    <path
       style="fill:none;stroke:#000000;stroke-width:4.442;stroke-linecap:butt;stroke-linejoin:miter;stroke-miterlimit:0;stroke-opacity:1;stroke-dasharray:none;marker-start:url(#Arrow1Mstart);marker-mid:url(#Arrow1Lend);marker-end:url(#Arrow1Mend)"
       d="m -308.90916,232.63332 6.38976,162.31487"
       id="path6484"
       inkscape:connector-type="polyline" />
    <path
       style="fill:none;stroke:#000000;stroke-width:4.442;stroke-linecap:butt;stroke-linejoin:miter;stroke-opacity:1;stroke-miterlimit:4;stroke-dasharray:none;marker-start:url(#Arrow1Mstart);marker-end:url(#Arrow1Mend)"
       d="m -828.57143,443.79075 257.14286,8.57143"
       id="path8236"
       inkscape:connector-type="polyline" />
    <path
       style="fill:none;stroke:#000000;stroke-width:4.442;stroke-linecap:butt;stroke-linejoin:miter;stroke-opacity:1;stroke-miterlimit:4;stroke-dasharray:none;marker-start:url(#Arrow1Mstart);marker-end:url(#Arrow1Mend)"
       d="m 80,1046.6479 0,68.5714"
       id="path8626"
       inkscape:connector-type="polyline" />
    <path
       style="fill:#00e4d1;fill-opacity:1;stroke:#000000;stroke-width:6.80917645;stroke-linecap:butt;stroke-linejoin:miter;stroke-miterlimit:4;stroke-opacity:1;stroke-dasharray:none;stroke-dashoffset:0;marker-start:url(#DotM);marker-end:url(#Arrow1Lend)"
       d="M 262.06157,555.28557 391.52398,486.55249"
       id="path9016"
       inkscape:connector-type="polyline" />
    <path
       style="fill:none;stroke:#000000;stroke-width:8.85602283;stroke-linecap:butt;stroke-linejoin:miter;stroke-miterlimit:4;stroke-opacity:1;stroke-dasharray:none;marker-start:url(#DotM-19);marker-end:url(#Arrow1Mend)"
       d="M -25.106667,551.82058 -120.40506,510.68847"
       id="path11070"
       inkscape:connector-type="polyline" />
    <path
       style="fill:none;stroke:#000000;stroke-width:6.23342371;stroke-linecap:butt;stroke-linejoin:miter;stroke-miterlimit:4;stroke-opacity:1;stroke-dasharray:none;marker-start:url(#DotM-19);marker-end:url(#Arrow1Mend)"
       d="m 79.957631,843.40191 5.873084,70.53991"
       id="path13382"
       inkscape:connector-type="polyline" />
  </g>
</svg>
